<?xml version="1.0" encoding="UTF-8"?>
<svg id="Capa_2" data-name="Capa 2" xmlns="http://www.w3.org/2000/svg" viewBox="0 0 58.7 37.1">
  <defs>
    <style>
      .cls-1 {
        fill: #9fb2c3;
      }

      .cls-1, .cls-2, .cls-3, .cls-4, .cls-5, .cls-6 {
        stroke-width: 0px;
      }

      .cls-2 {
        fill: #0d7ce8;
      }

      .cls-3 {
        fill: #d0deeb;
      }

      .cls-4 {
        fill: #52626f;
      }

      .cls-5 {
        fill: #8796a9;
      }

      .cls-6 {
        fill: #728393;
      }
    </style>
  </defs>
  <g id="Capa_1-2" data-name="Capa 1">
    <g>
      <path class="cls-2" d="M50.33,37.1H8.37c-4.62,0-8.37-3.75-8.37-8.37V8.37C0,3.76,3.75,0,8.37,0h41.96c4.62,0,8.37,3.76,8.37,8.37v20.36c0,4.62-3.75,8.37-8.37,8.37ZM8.37,2c-3.51,0-6.37,2.86-6.37,6.37v20.36c0,3.51,2.86,6.37,6.37,6.37h41.96c3.51,0,6.37-2.86,6.37-6.37V8.37c0-3.51-2.86-6.37-6.37-6.37H8.37Z"/>
      <g>
        <rect class="cls-4" x="39.25" y="24.25" width="13.95" height="7.65" rx="1.11" ry="1.11"/>
        <rect class="cls-6" x="22.38" y="24.25" width="13.95" height="7.65" rx="1.11" ry="1.11"/>
        <rect class="cls-5" x="5.5" y="24.25" width="13.95" height="7.65" rx="1.11" ry="1.11"/>
        <rect class="cls-6" x="39.25" y="14.73" width="13.95" height="7.65" rx="1.11" ry="1.11"/>
        <rect class="cls-5" x="22.38" y="14.73" width="13.95" height="7.65" rx="1.11" ry="1.11"/>
        <rect class="cls-1" x="5.5" y="14.73" width="13.95" height="7.65" rx="1.11" ry="1.11"/>
        <rect class="cls-5" x="39.25" y="5.2" width="13.95" height="7.65" rx="1.11" ry="1.11"/>
        <rect class="cls-1" x="22.38" y="5.2" width="13.95" height="7.65" rx="1.11" ry="1.11"/>
        <rect class="cls-3" x="5.5" y="5.2" width="13.95" height="7.65" rx="1.11" ry="1.11"/>
      </g>
    </g>
  </g>
</svg>