<?xml version="1.0" encoding="UTF-8"?>
<svg id="Capa_2" data-name="Capa 2" xmlns="http://www.w3.org/2000/svg" xmlns:xlink="http://www.w3.org/1999/xlink" viewBox="0 0 58.7 37.1">
  <defs>
    <style>
      .cls-1 {
        fill: #9ba9bd;
      }

      .cls-1, .cls-2 {
        stroke-width: 0px;
      }

      .cls-2 {
        fill: url(#Degradado_sin_nombre_189);
      }
    </style>
    <linearGradient id="Degradado_sin_nombre_189" data-name="Degradado sin nombre 189" x1="0" y1="18.55" x2="56.7" y2="18.55" gradientUnits="userSpaceOnUse">
      <stop offset="0" stop-color="#a6c0cd"/>
      <stop offset="1" stop-color="#e2fbff"/>
    </linearGradient>
  </defs>
  <g id="Capa_1-2" data-name="Capa 1">
    <g>
      <rect class="cls-2" y="1" width="56.7" height="35.1" rx="7.37" ry="7.37"/>
      <path class="cls-1" d="M50.33,37.1H8.37c-4.62,0-8.37-3.75-8.37-8.37V8.37C0,3.76,3.75,0,8.37,0h41.96c4.62,0,8.37,3.76,8.37,8.37v20.36c0,4.62-3.75,8.37-8.37,8.37ZM8.37,2c-3.51,0-6.37,2.86-6.37,6.37v20.36c0,3.51,2.86,6.37,6.37,6.37h41.96c3.51,0,6.37-2.86,6.37-6.37V8.37c0-3.51-2.86-6.37-6.37-6.37H8.37Z"/>
    </g>
  </g>
</svg>