<?xml version="1.0" encoding="UTF-8"?>
<svg id="Capa_2" data-name="Capa 2" xmlns="http://www.w3.org/2000/svg" viewBox="0 0 52.93 52.92">
  <defs>
    <style>
      .cls-1 {
        fill: #c9c9c9;
        stroke-width: 0px;
      }
    </style>
  </defs>
  <g id="Capa_1-2" data-name="Capa 1">
    <path class="cls-1" d="M26.47,52.92c-5.31,0-10.62,0-15.93,0-5.17,0-9.37-3.47-10.35-8.54-.12-.62-.17-1.26-.17-1.88C0,31.82,0,21.14,0,10.46.01,4.63,4.61.02,10.45.01c10.68-.01,21.36-.01,32.04,0,5.84,0,10.43,4.61,10.44,10.45.01,10.66.01,21.32,0,31.97,0,5.9-4.61,10.48-10.53,10.49-5.31,0-10.62,0-15.93,0ZM38.46,21.05c-.19-.27-.32-.51-.5-.69-1.78-1.8-3.57-3.59-5.36-5.38-.54-.54-.85-.54-1.4.01-5.82,5.81-11.65,11.62-17.46,17.44-.22.22-.4.52-.48.82-.62,2.39-1.22,4.79-1.81,7.18-.21.84.17,1.22,1.01,1.01,2.3-.57,4.61-1.12,6.91-1.73.47-.13.95-.4,1.3-.74,2.6-2.55,5.17-5.13,7.75-7.71,3.16-3.16,6.32-6.31,9.48-9.47.21-.21.36-.47.56-.74ZM42.48,14.55c-.03-.2-.04-.45-.11-.68-.39-1.45-1.4-2.41-2.67-3.06-1.17-.6-2.36-.41-3.39.4-1.01.79-1.41,1.86-1.24,3.15.16,1.23,1.02,1.99,1.85,2.74,1.05.94,2.29,1.14,3.57.56,1.29-.58,1.91-1.64,1.98-3.1Z"/>
  </g>
</svg>