<?xml version="1.0" encoding="UTF-8"?>
<svg id="Capa_2" data-name="Capa 2" xmlns="http://www.w3.org/2000/svg" viewBox="0 0 36.44 36.39">
  <defs>
    <style>
      .cls-1 {
        fill: #000;
        stroke-width: 0px;
      }
    </style>
  </defs>
  <g id="Capa_1-2" data-name="Capa 1">
    <path class="cls-1" d="M18.1.05c3.02,0,6.04-.13,9.05.03,5.22.27,9.05,4.06,9.18,9.26.15,5.84.16,11.69-.05,17.52-.21,5.87-3.94,9.38-9.79,9.46-5.47.07-10.93.09-16.4-.01-6.1-.11-9.9-3.87-10.01-9.91C-.02,20.85-.03,15.29.06,9.73.15,3.9,3.77.27,9.62.05c2.82-.1,5.65-.02,8.48-.02,0,0,0,.01,0,.02ZM18.24,18.46c.23-1.47.34-2.7.63-3.88.84-3.46,5.17-5.63,8.34-4.18.33.15.68.7.68,1.06,0,.35-.4.86-.74.99-.5.2-1.11.11-1.67.17-3.37.34-4.56,2-4.01,5.86,1.62.08,3.3.16,4.98.25,1.45.07,1.72.83,1.18,2.2-2.11.18-4.22.35-6.33.53v12.25c2.02,0,3.9.14,5.74-.03,4.34-.41,6.52-2.6,6.64-6.92.15-5.47-.03-10.94.11-16.41.11-4.27-2.48-7.75-7.72-7.84-5.19-.08-10.38-.05-15.57-.05-.47,0-.94.07-1.41.14-3.81.59-6.34,2.9-6.49,6.71-.24,6.03-.2,12.07-.05,18.11.07,2.96,2.17,5.52,4.74,6.05,3.71.76,7.45.44,11.14.22v-12.31q-2.87-.46-2.81-2.53c.79-.11,1.61-.23,2.62-.37Z"/>
  </g>
</svg>