<?xml version="1.0" encoding="UTF-8"?>
<svg id="Capa_2" data-name="Capa 2" xmlns="http://www.w3.org/2000/svg" viewBox="0 0 36.46 36.41">
  <defs>
    <style>
      .cls-1 {
        fill: #000;
        stroke-width: 0px;
      }
    </style>
  </defs>
  <g id="Capa_1-2" data-name="Capa 1">
    <g>
      <path class="cls-1" d="M36.38,18.42c0,2.92.1,5.85-.02,8.77-.22,5.34-3.89,9.04-9.19,9.14-5.75.11-11.51.12-17.26,0-5.68-.11-9.64-3.96-9.79-9.61-.16-5.75-.17-11.5,0-17.25C.31,3.8,4.01.21,9.7.07,15.17-.06,20.64.04,26.11,0c6.66-.05,10.66,4.78,10.33,10.5-.03.47,0,.94,0,1.41,0,2.17,0,4.34,0,6.51h-.06ZM33.96,18.32h.04c0-1.13,0-2.26,0-3.39-.01-1.79.07-3.59-.07-5.37-.31-4.08-2.45-6.3-6.51-6.92-.65-.1-1.31-.18-1.97-.18-4.71-.03-9.42-.06-14.13-.04-.93,0-1.88.12-2.8.32-3.29.73-5.6,3.15-5.71,6.48-.19,5.74-.29,11.49-.14,17.23.13,4.78,2.45,7.16,7.19,7.34,5.55.21,11.12.22,16.67-.02,4.9-.21,7.24-2.87,7.41-7.82.09-2.54.02-5.09.02-7.63Z"/>
      <path class="cls-1" d="M18.45,26.25c-4.46.05-8.15-3.52-8.2-7.94-.06-4.55,3.42-8.14,7.91-8.16,4.5-.03,8.14,3.5,8.21,7.95.07,4.55-3.38,8.11-7.92,8.16ZM12.78,18.01c-.13,2.89,2.32,5.64,5.12,5.75,2.94.11,5.76-2.42,5.93-5.33.16-2.77-2.32-5.57-5.12-5.79-2.72-.21-5.8,2.57-5.92,5.37Z"/>
      <path class="cls-1" d="M29.61,8.91c-.04.99-1.05,1.94-2.04,1.9-.96-.03-1.86-1.02-1.89-2.07-.03-1.1.86-1.93,1.97-1.81,1.08.11,1.99,1.03,1.96,1.98Z"/>
    </g>
  </g>
</svg>