<?xml version="1.0" encoding="UTF-8"?>
<svg id="Capa_2" data-name="Capa 2" xmlns="http://www.w3.org/2000/svg" viewBox="0 0 37.38 36.43">
  <defs>
    <style>
      .cls-1 {
        fill: #000;
        stroke-width: 0px;
      }
    </style>
  </defs>
  <g id="Capa_1-2" data-name="Capa 1">
    <path class="cls-1" d="M29.39,15.2c1.08-1.27,1.71-2.07,2.41-2.82.68-.72,1.37-1.91,2.54-1.03,1.22.93.19,1.83-.4,2.64-.71.99-1.52,1.93-2.16,2.97-1.37,2.23-1.19,3.43.74,5.2.69.63,1.52,1.11,2.27,1.67.75.55,1.48,1.12,2.59,1.96-.97.7-1.61,1.35-2.4,1.71-1.64.74-2.83,1.84-3.44,3.54-.34.95-.93,1.42-1.99,1.7-2.16.58-4.36,1.25-6.3,2.32-3.11,1.71-6.01,1.87-9.07.03-2.1-1.26-4.29-2.34-6.85-2.47-.51-.03-1.28-.6-1.44-1.08-.74-2.27-2.4-3.52-4.43-4.48-.48-.23-.85-.68-1.47-1.19.5-.55.86-1.06,1.33-1.43.66-.53,1.43-.91,2.11-1.42,3.22-2.42,3.48-4.01,1.17-7.3-.7-1-1.5-1.94-2.14-2.98-.2-.32-.18-1.12.01-1.24.4-.24,1.21-.41,1.46-.18,1.17,1.05,2.21,2.24,3.71,3.82.18-2.24.26-3.87.46-5.5C8.78,4.05,12.76.24,18.15,0c5.21-.23,9.68,3.45,10.71,8.98.34,1.82.33,3.7.53,6.22ZM31.89,25.49c-4.06-2.86-5.33-6.97-5.45-11.6-.04-1.51,0-3.03-.18-4.52-.53-4.3-4.33-7.22-8.61-6.69-3.38.41-6.15,2.89-6.69,6.35-.36,2.32-.33,4.69-.48,7.04-.21,3.45-1.43,6.4-4.22,8.59-.41.32-.71.79-.97,1.09.88,1.35,1.61,2.54,2.41,3.67.25.36.69.79,1.07.82,2.76.2,4.91,1.82,7.28,2.95,1.23.58,2.49.95,3.81.36,2.23-1,4.39-2.74,6.67-2.9,3.31-.23,3.17-3.49,5.22-4.62.06-.03.05-.17.15-.54Z"/>
  </g>
</svg>