<?xml version="1.0" encoding="UTF-8"?>
<svg id="Capa_2" data-name="Capa 2" xmlns="http://www.w3.org/2000/svg" viewBox="0 0 36.51 36.39">
  <defs>
    <style>
      .cls-1 {
        fill: #000;
        stroke-width: 0px;
      }
    </style>
  </defs>
  <g id="Capa_1-2" data-name="Capa 1">
    <g>
      <path class="cls-1" d="M18.14,36.39C9.5,36.42-.12,29.86,0,17.9.12,6.5,9.69-.2,18.43,0c9.86.23,18.16,8.59,18.08,18.44-.08,10.02-8.3,18.05-18.38,17.94ZM33.78,18.2c-.02-8.53-6.91-15.79-15.25-15.71-10.43.1-16.09,8.76-15.98,16,.13,8.48,7.05,15.38,15.6,15.35,8.62-.03,15.64-7.06,15.63-15.64Z"/>
      <path class="cls-1" d="M30.1,16.12c-.73-.18-1.44-.28-2.09-.54-6.18-2.52-12.5-3.23-19.03-1.63-.18.04-.36.09-.55.14-.9.24-1.47-.11-1.68-.99-.22-.92.26-1.47,1.12-1.61,2.03-.34,4.07-.74,6.12-.88,5.05-.33,9.92.51,14.54,2.61,1.69.77,1.67.83,1.57,2.9Z"/>
      <path class="cls-1" d="M27.53,21.93c-6.2-3.41-12.75-3.83-19.42-2.28-.82-1.68-.34-2.37,1.06-2.75,4.01-1.08,8.03-1.18,12.02-.07,1.98.55,3.9,1.38,5.81,2.16,1.12.46,1.63,1.26.54,2.94Z"/>
      <path class="cls-1" d="M8.55,24.47c-.61-1.39-.38-2.11,1.01-2.42,5.4-1.2,10.62-.93,15.59,1.69.78.41,1.61.78,1.07,1.88-.43.9-1.19.79-1.92.43-4.28-2.13-8.75-2.6-13.42-1.61-.71.15-1.47.02-2.35.02Z"/>
    </g>
  </g>
</svg>