<?xml version="1.0" encoding="UTF-8"?>
<svg id="Capa_2" data-name="Capa 2" xmlns="http://www.w3.org/2000/svg" viewBox="0 0 34.4 29.1">
  <defs>
    <style>
      .cls-1 {
        fill: #000;
        stroke-width: 0px;
      }
    </style>
  </defs>
  <g id="Capa_1-2" data-name="Capa 1">
    <path class="cls-1" d="M18.23,23.65c-1.02,1.12-1.83,2.18-2.81,3.04-1.67,1.47-3.19,1.26-4.09-.75-.84-1.88-1.44-3.9-1.88-5.91-.34-1.6-1.09-2.45-2.67-2.82-1.55-.36-3.07-.91-4.58-1.45C1.1,15.36.09,14.7,0,13.42c-.09-1.26,1.01-1.69,1.93-2.16.42-.22.84-.43,1.28-.6C12.19,7.22,21.16,3.76,30.16.39c3.02-1.13,4.59.23,4.17,3.39-.05.37-.11.75-.19,1.12-1,4.7-2,9.41-3,14.11-.45,2.12-.85,4.25-1.35,6.36-.99,4.16-2.61,4.74-6.17,2.23-1.69-1.19-3.34-2.45-5.39-3.95ZM31.96,2.4c-9.46,3.87-18.66,7.03-27.58,11.1,1.52.72,3,1.2,4.5,1.6,1.52.41,2.34,1.32,2.7,2.89.51,2.25,1.23,4.45,1.94,6.94,1.03-.96,1.82-1.69,2.62-2.43-.73-.77-1.4-1.32-1.88-2-1.06-1.51-1.1-2.61.11-3.82,2.28-2.25,4.68-4.38,7.07-6.52.91-.81,1.85-.88,2.72.49-1.97,3.28-5.6,5.12-7.98,8.28,3.5,2.57,6.89,5.06,10.59,7.78,1.74-8.16,3.39-15.96,5.17-24.32Z"/>
  </g>
</svg>