<?xml version="1.0" encoding="UTF-8"?>
<svg id="Capa_2" data-name="Capa 2" xmlns="http://www.w3.org/2000/svg" viewBox="0 0 32.1 36.66">
  <defs>
    <style>
      .cls-1 {
        fill: #000;
        stroke-width: 0px;
      }
    </style>
  </defs>
  <g id="Capa_1-2" data-name="Capa 1">
    <path class="cls-1" d="M10.59,13.64c5.84-3,5.23-8.28,5.3-13.64,1.35.43,2.47.58,3.39,1.1,6.93,3.94,11.72,9.55,12.69,17.69,1.41,11.88-8.99,20.08-20.08,17.34C3.32,34.02-1.63,26.07.49,17.87c.96-3.72,3.25-6.57,6.31-8.79,1.61-1.16,2.53-.74,3.06,1.21.28,1.05.47,2.13.74,3.35ZM18.74,3.89c-.14,6.45-2.67,10.98-9.32,12.89-.75-1.66-1.42-3.12-2.21-4.87-.96,1.22-1.78,2.23-2.56,3.26-4.38,5.79-1.33,15.92,6.44,18.17,3.17.92,6.31.99,9.46-.05,5.31-1.76,8.73-6.27,8.93-11.84.21-5.76-2.18-10.43-6.24-14.31-1.25-1.2-2.47-2.55-4.49-3.25Z"/>
  </g>
</svg>