<?xml version="1.0" encoding="UTF-8"?>
<svg id="Capa_2" data-name="Capa 2" xmlns="http://www.w3.org/2000/svg" viewBox="0 0 31.87 36.66">
  <defs>
    <style>
      .cls-1 {
        fill: #1e120d;
        stroke-width: 0px;
      }
    </style>
  </defs>
  <g id="Capa_1-2" data-name="Capa 1">
    <g>
      <rect class="cls-1" x="15.34" y="7.55" width="2.4" height="7.19" rx=".14" ry=".14"/>
      <rect class="cls-1" x="22.53" y="7.55" width="2.4" height="7.19" rx=".14" ry=".14"/>
      <path class="cls-1" d="M9.34,36.66c-.2,0-.4-.04-.59-.12-.58-.24-.95-.8-.95-1.43v-4.45H2.15c-1.19,0-2.15-.96-2.15-2.15V7.44c0-.58.22-1.12.63-1.53L5.92.63c.41-.41.95-.63,1.52-.63h22.27c1.19,0,2.15.96,2.15,2.15v16.28c0,.57-.23,1.12-.63,1.52l-10.08,10.08c-.4.4-.95.63-1.52.63h-3.66l-5.54,5.54c-.3.3-.69.45-1.09.45ZM5.81,3.44l-3.83,3.83s-.07.11-.07.17v21.07c0,.13.11.24.24.24h7.55v5.48l5.48-5.48h4.45c.06,0,.13-.03.17-.07l4.38-4.38h-4.27l-3.5,3.5c-.52.52-1.2.8-1.92.8-1.5,0-2.73-1.22-2.73-2.73v-1.58h-3.02c-1.64,0-2.98-1.34-2.98-2.98V3.95c0-.17.01-.34.04-.51ZM8.74,2.88c-.59,0-1.07.48-1.07,1.07v17.38c0,.59.48,1.07,1.07,1.07h4.92v3.49c0,.45.37.82.82.82.22,0,.42-.08.57-.24l4.06-4.06h5.15c.29,0,.55-.11.76-.32l3.64-3.64c.2-.2.31-.47.31-.75V3.95c0-.59-.48-1.07-1.07-1.07H8.74Z"/>
    </g>
  </g>
</svg>