<?xml version="1.0" encoding="UTF-8"?>
<svg id="Capa_2" data-name="Capa 2" xmlns="http://www.w3.org/2000/svg" viewBox="0 0 36.53 36.49">
  <defs>
    <style>
      .cls-1 {
        fill: #000;
        stroke-width: 0px;
      }
    </style>
  </defs>
  <g id="Capa_1-2" data-name="Capa 1">
    <path class="cls-1" d="M0,18.36C.02,8.17,8.21-.04,18.3,0c9.81.04,18.45,8.62,18.23,18.24-.26,11.26-8.62,18.25-18.32,18.25C8.22,36.5-.02,28.29,0,18.36ZM15.75,17.54c-3.54,2.92-7.65,4.79-12.3,5.94,1.93,4.71,4.95,7.75,9.65,9.62,1.23-4.52,2.73-8.65,5.82-12.04-1.07-1.18-2-2.22-3.17-3.51ZM32.97,13.36c-1.61-4.93-4.82-8.04-9.75-9.92-.76,4.65-2.67,8.66-5.25,11.73.97,1.39,1.82,2.6,2.8,4,3.68-3.19,7.61-5.07,12.2-5.82ZM30.15,28.03c3-2.88,4.49-8.33,3.23-12.06-3.97.63-7.37,2.39-10.25,4.82,2.48,2.56,4.75,4.9,7.02,7.24ZM20.82,22.99c-2.54,3.29-4.36,6.66-4.98,10.86,4.79.36,8.79-.63,12.23-3.53-2.44-2.47-4.74-4.79-7.25-7.33ZM20.55,2.8c-4.69-.5-8.69.61-12.36,3.66,2.52,2.49,4.9,4.83,7.27,7.17,2.86-3.14,4.58-6.8,5.09-10.84ZM2.92,20.81c3.99-1.04,7.56-2.44,10.82-5.27-2.66-2.31-5.18-4.49-7.77-6.74-2.66,3.15-3.8,7.18-3.05,12.02Z"/>
  </g>
</svg>