<?xml version="1.0" encoding="UTF-8"?>
<svg id="Capa_2" data-name="Capa 2" xmlns="http://www.w3.org/2000/svg" viewBox="0 0 36.89 33.63">
  <defs>
    <style>
      .cls-1 {
        fill: #000;
        stroke-width: 0px;
      }
    </style>
  </defs>
  <g id="Capa_1-2" data-name="Capa 1">
    <path class="cls-1" d="M.8,33.38c4.38-5.01,8.7-9.94,13.03-14.89.05-.05.05-.13,0-.19C9.24,12.29,4.67,6.31.03.25-.04.15.03,0,.15,0h.18c3.63,0,7.27,0,10.9,0,.3,0,.48.1.66.33,2.57,3.41,5.15,6.82,7.72,10.22.01.01.02.03.03.04.06.07.17.07.23,0,.37-.41.73-.82,1.08-1.23,2.64-3.02,5.28-6.03,7.91-9.05C29.05.1,29.25,0,29.56,0c1.6.02,3.2,0,4.79,0h.17c.13,0,.19.15.11.24-4.08,4.67-8.11,9.27-12.17,13.9-.05.05-.05.13,0,.19,4.79,6.33,9.58,12.66,14.4,19.04.07.09,0,.23-.11.24-.05,0-.09,0-.13,0-3.57,0-7.14,0-10.72,0-.26,0-.42-.09-.57-.29-2.85-3.74-5.72-7.48-8.58-11.22-.02-.03-.05-.06-.08-.1-.06-.07-.16-.07-.22,0-.31.35-.62.69-.92,1.04-2.97,3.4-5.95,6.79-8.91,10.2-.23.27-.47.38-.83.38-1.57-.02-3.15,0-4.72,0-.05,0-.11,0-.17,0-.13,0-.19-.15-.11-.24ZM6.8,3.24c-.12,0-.19.14-.12.23,0,0,0,0,0,0,1.02,1.34,2.04,2.67,3.07,4.01,5.67,7.41,11.34,14.81,16.99,22.23.27.36.54.57,1.01.51.41-.05.82,0,1.23,0h1.01c.12,0,.19-.13.12-.23-.05-.07-.09-.12-.13-.18-4.78-6.32-9.56-12.64-14.34-18.96-1.85-2.44-3.69-4.88-5.54-7.32-.09-.12-.25-.27-.38-.27-.96-.02-1.91-.01-2.92-.01Z"/>
  </g>
</svg>