<?xml version="1.0" encoding="UTF-8"?>
<svg id="Capa_2" data-name="Capa 2" xmlns="http://www.w3.org/2000/svg" viewBox="0 0 40.23 33.63">
  <defs>
    <style>
      .cls-1 {
        fill: #000;
        stroke-width: 0px;
      }
    </style>
  </defs>
  <g id="Capa_1-2" data-name="Capa 1">
    <g>
      <path class="cls-1" d="M20.79,33.63c-4.16-.23-8.31-.4-12.44-.7-5.32-.39-7.22-2.15-7.82-7.43C-.12,19.77-.21,14.02.48,8.29c.1-.84.27-1.67.48-2.49C1.73,2.74,3.49,1.05,6.65.73c8.84-.91,17.69-1.02,26.53-.02,3.8.43,5.75,2.33,6.32,6.12.99,6.56.95,13.16.05,19.72-.59,4.29-2.34,5.96-6.62,6.35-4.03.37-8.09.5-12.12.73ZM20.36,2.94c0-.13,0-.27-.01-.4-4.42.25-8.84.47-13.25.75-2.34.14-3.57,1.54-3.87,3.77-.87,6.38-1.01,12.77-.06,19.14.47,3.17,1.16,3.87,4.38,4.13,8.37.69,16.75.78,25.12-.08.37-.04.75-.08,1.12-.16,1.64-.32,2.75-1.2,3.02-2.92.24-1.58.65-3.16.65-4.74,0-4.89,0-9.79-.29-14.67-.19-3.12-1.34-4.08-4.37-4.6-.74-.13-1.5-.22-2.25-.22-3.39-.02-6.78-.01-10.18-.01Z"/>
      <path class="cls-1" d="M15.66,23.72c-.71-2.28-.81-10.79-.21-13.76,2.18.25,9.63,4.32,12.1,6.6-1.24,1.94-8.27,6.21-11.89,7.16ZM17.89,13.47v6.59c1.9-1.21,3.5-2.23,5.39-3.42-1.96-1.15-3.53-2.07-5.39-3.17Z"/>
    </g>
  </g>
</svg>