<?xml version="1.0" encoding="UTF-8"?>
<svg id="Capa_2" data-name="Capa 2" xmlns="http://www.w3.org/2000/svg" xmlns:xlink="http://www.w3.org/1999/xlink" viewBox="0 0 46.42 46.42">
  <defs>
    <style>
      .cls-1 {
        fill: url(#Degradado_sin_nombre_179);
      }

      .cls-1, .cls-2 {
        stroke-width: 0px;
      }

      .cls-2 {
        fill: #fff;
      }
    </style>
    <linearGradient id="Degradado_sin_nombre_179" data-name="Degradado sin nombre 179" x1="0" y1="23.21" x2="46.42" y2="23.21" gradientUnits="userSpaceOnUse">
      <stop offset="0" stop-color="#ffeac9"/>
      <stop offset="1" stop-color="#ea897b"/>
    </linearGradient>
  </defs>
  <g id="Capa_1-2" data-name="Capa 1">
    <g>
      <path class="cls-1" d="M23.21,46.42h0C10.39,46.42,0,36.03,0,23.21h0C0,10.39,10.39,0,23.21,0h0c12.82,0,23.21,10.39,23.21,23.21h0c0,12.82-10.39,23.21-23.21,23.21Z"/>
      <g>
        <path class="cls-2" d="M23.21,13.96c3.01,0,3.37.01,4.56.07,1.1.05,1.7.23,2.1.39.53.2.9.45,1.3.84.4.4.64.77.84,1.3.15.4.34,1,.39,2.1.05,1.19.07,1.55.07,4.56s-.01,3.37-.07,4.56c-.05,1.1-.23,1.7-.39,2.1-.2.53-.45.9-.84,1.3-.39.39-.77.64-1.3.84-.4.15-1,.34-2.1.39-1.19.05-1.55.07-4.56.07s-3.37-.01-4.56-.07c-1.1-.05-1.7-.23-2.1-.39-.53-.2-.9-.45-1.3-.84-.39-.39-.64-.77-.84-1.3-.15-.4-.34-.99-.39-2.1-.05-1.19-.07-1.55-.07-4.56s.01-3.37.07-4.56c.05-1.1.23-1.7.39-2.1.2-.53.45-.9.84-1.3.39-.39.77-.64,1.3-.84.4-.15,1-.34,2.1-.39,1.19-.05,1.55-.07,4.56-.07M23.21,11.93c-3.06,0-3.45.01-4.65.07-1.2.05-2.02.25-2.74.52-.74.29-1.37.67-2,1.3-.63.63-1.01,1.26-1.3,2-.28.72-.47,1.54-.52,2.74-.06,1.2-.07,1.59-.07,4.65s.01,3.45.07,4.65c.05,1.2.25,2.02.52,2.74.29.74.67,1.37,1.3,2,.63.63,1.26,1.01,2,1.3.72.28,1.54.47,2.74.52,1.2.05,1.59.07,4.65.07s3.45-.01,4.65-.07c1.2-.05,2.02-.25,2.74-.52.74-.29,1.37-.67,2-1.3.63-.63,1.01-1.26,1.3-2,.28-.72.47-1.54.52-2.74.05-1.2.07-1.59.07-4.65s-.01-3.45-.07-4.65c-.05-1.2-.25-2.02-.52-2.74-.29-.74-.67-1.37-1.3-2-.63-.63-1.26-1.01-2-1.3-.72-.28-1.54-.47-2.74-.52-1.2-.05-1.59-.07-4.65-.07"/>
        <path class="cls-2" d="M23.21,17.42c-3.2,0-5.79,2.59-5.79,5.79s2.59,5.79,5.79,5.79,5.79-2.59,5.79-5.79-2.59-5.79-5.79-5.79M23.21,26.97c-2.08,0-3.76-1.68-3.76-3.76s1.68-3.76,3.76-3.76,3.76,1.68,3.76,3.76-1.68,3.76-3.76,3.76"/>
        <path class="cls-2" d="M30.59,17.19c0,.75-.61,1.35-1.35,1.35s-1.35-.61-1.35-1.35.61-1.35,1.35-1.35,1.35.61,1.35,1.35"/>
      </g>
    </g>
  </g>
</svg>