<?xml version="1.0" encoding="UTF-8"?>
<svg id="Capa_2" data-name="Capa 2" xmlns="http://www.w3.org/2000/svg" xmlns:xlink="http://www.w3.org/1999/xlink" viewBox="0 0 46.42 46.42">
  <defs>
    <style>
      .cls-1 {
        fill: url(#Degradado_sin_nombre_179);
      }

      .cls-1, .cls-2 {
        stroke-width: 0px;
      }

      .cls-2 {
        fill: #fff;
      }
    </style>
    <linearGradient id="Degradado_sin_nombre_179" data-name="Degradado sin nombre 179" x1="0" y1="23.21" x2="46.42" y2="23.21" gradientUnits="userSpaceOnUse">
      <stop offset="0" stop-color="#ffeac9"/>
      <stop offset="1" stop-color="#ea897b"/>
    </linearGradient>
  </defs>
  <g id="Capa_1-2" data-name="Capa 1">
    <g>
      <path class="cls-1" d="M23.21,46.42h0C10.39,46.42,0,36.03,0,23.21h0C0,10.39,10.39,0,23.21,0h0c12.82,0,23.21,10.39,23.21,23.21h0c0,12.82-10.39,23.21-23.21,23.21Z"/>
      <g>
        <path class="cls-2" d="M29.99,13.55c-1.05-1.2-2.96-1.72-5.39-1.72h-7.07c-.5,0-.92.36-1,.85l-2.94,18.67c-.06.37.23.7.6.7h4.36l1.1-6.95-.03.22c.08-.49.5-.85,1-.85h2.07c4.07,0,7.26-1.65,8.2-6.44.03-.14.07-.41.07-.41.26-1.77,0-2.97-.96-4.06Z"/>
        <path class="cls-2" d="M32.05,18.52c-1.01,4.71-4.25,7.21-9.37,7.21h-1.86l-1.39,8.85h3.02c.44,0,.81-.32.87-.75l.04-.19.69-4.39.04-.24c.07-.43.44-.75.87-.75h.55c3.56,0,6.35-1.45,7.17-5.64.33-1.68.17-3.09-.64-4.11Z"/>
      </g>
    </g>
  </g>
</svg>