<?xml version="1.0" encoding="UTF-8"?>
<svg id="Capa_2" data-name="Capa 2" xmlns="http://www.w3.org/2000/svg" xmlns:xlink="http://www.w3.org/1999/xlink" viewBox="0 0 46.54 46.54">
  <defs>
    <style>
      .cls-1 {
        fill: url(#Degradado_sin_nombre_179);
      }

      .cls-1, .cls-2 {
        stroke-width: 0px;
      }

      .cls-2 {
        fill: #fff;
      }
    </style>
    <linearGradient id="Degradado_sin_nombre_179" data-name="Degradado sin nombre 179" x1="0" y1="23.27" x2="46.54" y2="23.27" gradientUnits="userSpaceOnUse">
      <stop offset="0" stop-color="#ffeac9"/>
      <stop offset="1" stop-color="#ea897b"/>
    </linearGradient>
  </defs>
  <g id="Capa_1-2" data-name="Capa 1">
    <g>
      <path class="cls-1" d="M46.54,23.27c0,12.85-10.42,23.27-23.27,23.27h0C10.42,46.54,0,36.12,0,23.27h0C0,10.42,10.42,0,23.27,0h0c12.85,0,23.27,10.42,23.27,23.27h0Z"/>
      <g>
        <rect class="cls-2" x="23.44" y="17.08" width="1.65" height="4.94" rx=".1" ry=".1"/>
        <rect class="cls-2" x="28.38" y="17.08" width="1.65" height="4.94" rx=".1" ry=".1"/>
        <path class="cls-2" d="M19.31,37.1c-.14,0-.28-.03-.41-.08-.4-.16-.65-.55-.65-.98v-3.06h-3.88c-.82,0-1.48-.66-1.48-1.48v-14.49c0-.4.15-.77.43-1.05l3.64-3.64c.28-.28.65-.43,1.05-.43h15.32c.82,0,1.48.66,1.48,1.48v11.19c0,.39-.16.77-.43,1.05l-6.93,6.93c-.28.28-.66.43-1.05.43h-2.52l-3.81,3.81c-.2.2-.47.31-.75.31ZM16.89,14.26l-2.63,2.63s-.05.07-.05.12v14.49c0,.09.08.17.17.17h5.19v3.77l3.77-3.77h3.06s.09-.02.12-.05l3.01-3.01h-2.94l-2.41,2.41c-.35.35-.82.55-1.32.55-1.03,0-1.88-.84-1.88-1.87v-1.08h-2.07c-1.13,0-2.05-.92-2.05-2.05v-11.95c0-.12.01-.24.03-.35ZM18.9,13.87c-.4,0-.73.33-.73.73v11.95c0,.4.33.73.73.73h3.39v2.4c0,.31.25.56.56.56.15,0,.29-.06.39-.16l2.79-2.79h3.54c.2,0,.38-.08.52-.22l2.5-2.5c.14-.14.21-.32.21-.52v-9.45c0-.4-.33-.73-.73-.73h-13.19Z"/>
      </g>
    </g>
  </g>
</svg>