<?xml version="1.0" encoding="UTF-8"?>
<svg id="Capa_2" data-name="Capa 2" xmlns="http://www.w3.org/2000/svg" xmlns:xlink="http://www.w3.org/1999/xlink" viewBox="0 0 46.42 46.42">
  <defs>
    <style>
      .cls-1 {
        fill: url(#Degradado_sin_nombre_179);
      }

      .cls-1, .cls-2 {
        stroke-width: 0px;
      }

      .cls-2 {
        fill: #fff;
      }
    </style>
    <linearGradient id="Degradado_sin_nombre_179" data-name="Degradado sin nombre 179" x1="0" y1="23.21" x2="46.42" y2="23.21" gradientUnits="userSpaceOnUse">
      <stop offset="0" stop-color="#ffeac9"/>
      <stop offset="1" stop-color="#ea897b"/>
    </linearGradient>
  </defs>
  <g id="Capa_1-2" data-name="Capa 1">
    <g>
      <path class="cls-1" d="M23.21,46.42h0C10.39,46.42,0,36.03,0,23.21h0C0,10.39,10.39,0,23.21,0h0c12.82,0,23.21,10.39,23.21,23.21h0c0,12.82-10.39,23.21-23.21,23.21Z"/>
      <path class="cls-2" d="M23.21,10.19c-7.19,0-13.02,5.83-13.02,13.02s5.83,13.02,13.02,13.02,13.02-5.83,13.02-13.02-5.83-13.02-13.02-13.02ZM23.21,12.46c2.47,0,4.74.85,6.56,2.25-1.31,1.69-3.11,3.02-5.41,3.99-1.1-2.02-2.36-3.99-3.78-5.9.84-.21,1.73-.34,2.64-.34ZM18.36,13.63c1.44,1.89,2.72,3.84,3.84,5.84-2.64.78-5.78,1.17-9.42,1.2.75-3.08,2.82-5.63,5.59-7.04ZM12.46,23.21c0-.09.01-.18.01-.28,4.17,0,7.78-.49,10.79-1.44.25.51.5,1.03.73,1.55-3.67,1.15-6.69,3.49-9.04,7.03-1.55-1.86-2.49-4.26-2.49-6.87ZM23.21,33.97c-2.49,0-4.78-.86-6.6-2.28,2.14-3.35,4.86-5.53,8.24-6.54,1.01,2.63,1.75,5.33,2.22,8.09-1.2.46-2.5.73-3.86.73ZM29.18,32.15c-.48-2.55-1.17-5.05-2.08-7.48,2.03-.29,4.27-.21,6.72.21-.47,3.02-2.2,5.63-4.64,7.27ZM26.23,22.53c-.26-.61-.54-1.22-.83-1.82,2.51-1.09,4.52-2.56,6.02-4.43,1.46,1.73,2.38,3.93,2.52,6.33-2.79-.46-5.36-.48-7.71-.08Z"/>
    </g>
  </g>
</svg>