<?xml version="1.0" encoding="UTF-8"?>
<svg id="Capa_2" data-name="Capa 2" xmlns="http://www.w3.org/2000/svg" xmlns:xlink="http://www.w3.org/1999/xlink" viewBox="0 0 46.42 46.42">
  <defs>
    <style>
      .cls-1 {
        fill: url(#Degradado_sin_nombre_179);
      }

      .cls-1, .cls-2 {
        stroke-width: 0px;
      }

      .cls-2 {
        fill: #fff;
      }
    </style>
    <linearGradient id="Degradado_sin_nombre_179" data-name="Degradado sin nombre 179" x1="0" y1="23.21" x2="46.42" y2="23.21" gradientUnits="userSpaceOnUse">
      <stop offset="0" stop-color="#ffeac9"/>
      <stop offset="1" stop-color="#ea897b"/>
    </linearGradient>
  </defs>
  <g id="Capa_1-2" data-name="Capa 1">
    <g>
      <path class="cls-1" d="M23.21,46.42h0C10.39,46.42,0,36.03,0,23.21h0C0,10.39,10.39,0,23.21,0h0c12.82,0,23.21,10.39,23.21,23.21h0c0,12.82-10.39,23.21-23.21,23.21Z"/>
      <path class="cls-2" d="M13.29,32.53c2.46-2.82,4.89-5.59,7.33-8.38.03-.03.03-.07,0-.1-2.58-3.38-5.16-6.75-7.77-10.15-.04-.05,0-.13.07-.13h.1c2.04,0,4.09,0,6.13,0,.17,0,.27.05.37.19,1.45,1.92,2.9,3.83,4.35,5.75,0,0,.01.02.02.02.03.04.09.04.13,0,.21-.23.41-.46.61-.69,1.48-1.7,2.97-3.39,4.45-5.09.11-.13.22-.19.4-.18.9,0,1.8,0,2.7,0h.09c.07,0,.11.08.06.14-2.3,2.62-4.56,5.21-6.84,7.82-.03.03-.03.07,0,.1,2.69,3.56,5.39,7.12,8.1,10.71.04.05,0,.13-.06.13-.03,0-.05,0-.08,0-2.01,0-4.02,0-6.03,0-.15,0-.23-.05-.32-.16-1.61-2.11-3.21-4.21-4.82-6.31-.01-.02-.03-.04-.04-.06-.03-.04-.09-.04-.13,0-.17.2-.35.39-.52.58-1.67,1.91-3.35,3.82-5.01,5.74-.13.15-.26.22-.47.21-.89-.01-1.77,0-2.66,0-.03,0-.06,0-.09,0-.07,0-.11-.08-.06-.14ZM16.66,15.57c-.07,0-.11.08-.07.13,0,0,0,0,0,0,.57.75,1.15,1.5,1.72,2.25,3.19,4.17,6.38,8.33,9.56,12.5.15.2.3.32.57.29.23-.03.46,0,.69,0h.57c.07,0,.11-.08.07-.13-.03-.04-.05-.07-.07-.1-2.69-3.55-5.38-7.11-8.07-10.66-1.04-1.37-2.08-2.75-3.12-4.12-.05-.07-.14-.15-.21-.15-.54-.01-1.08,0-1.64,0Z"/>
    </g>
  </g>
</svg>