<?xml version="1.0" encoding="UTF-8"?>
<svg id="Capa_2" data-name="Capa 2" xmlns="http://www.w3.org/2000/svg" viewBox="0 0 76.15 62.34">
  <defs>
    <style>
      .cls-1 {
        fill: #c9d5e1;
        stroke-width: 0px;
      }
    </style>
  </defs>
  <g id="Capa_1-2" data-name="Capa 1">
    <g>
      <path class="cls-1" d="M24.58,19.12c-3.01-.01-5.46-2.47-5.45-5.46.01-3.02,2.5-5.48,5.53-5.45,2.99.02,5.45,2.53,5.41,5.5-.04,3.02-2.48,5.42-5.5,5.41Z"/>
      <path class="cls-1" d="M47.23,47.83c-9.91,0-19.81,0-29.72,0-1.85,0-3.62-.3-5.23-1.22-3.6-2.04-5.4-5.19-5.44-9.29-.05-5.72-.01-11.44-.01-17.16v-.67c-.18.15-.24.32-.3.49-.98,3.27-1.96,6.53-2.94,9.8-1.2,4-2.39,8-3.59,11.99v1.79c.04.05.09.1.1.15.58,2.69,2.23,4.32,4.88,5.01,3.55.93,7.08,1.89,10.62,2.84,10.35,2.77,20.71,5.55,31.06,8.32,1.57.42,3.1.26,4.39-.35-2.42-2.78-3.89-6.4-3.89-10.37,0-.45.03-.9.07-1.34Z"/>
      <path class="cls-1" d="M62.99,33.35c.89,0,1.76.09,2.62.23,0-8.8,0-17.6,0-26.4C65.61,2.91,62.68,0,58.39,0,44.98,0,31.57,0,18.16,0c-4.31,0-7.23,2.92-7.23,7.24,0,9.76,0,19.52,0,29.28,0,.61.04,1.24.18,1.84.74,3.29,3.43,5.36,6.94,5.36,6.73,0,13.45,0,20.18,0,3.3,0,6.61,0,9.91,0,2.22-6.05,8.02-10.37,14.84-10.37ZM43.88,16.58c-3.09,3.71-6.17,7.41-9.26,11.12-.18.21-.36.42-.62.73-1.04-1.06-2.05-2.09-3.06-3.12-.68-.7-1.47-1.24-2.43-1.46-1.81-.42-3.37.07-4.68,1.38-2.27,2.26-4.53,4.53-6.79,6.8-.17.17-.3.37-.44.55-.05-.02-.1-.05-.14-.07-.01-.18-.04-.35-.04-.53,0-8.28,0-16.57,0-24.85,0-1.15.48-1.63,1.64-1.63,13.49,0,26.99,0,40.48,0,1.08,0,1.6.46,1.6,1.47,0,6.28,0,12.55,0,18.83,0,.08-.02.16-.06.38-2.19-2.55-4.28-4.99-6.38-7.44-.64-.75-1.27-1.5-1.92-2.24-2.36-2.71-5.59-2.67-7.9.1Z"/>
      <path class="cls-1" d="M62.99,62.34c-7.26,0-13.16-5.9-13.16-13.16s5.9-13.16,13.16-13.16,13.16,5.9,13.16,13.16-5.9,13.16-13.16,13.16ZM62.99,39.81c-5.16,0-9.36,4.2-9.36,9.36s4.2,9.36,9.36,9.36,9.36-4.2,9.36-9.36-4.2-9.36-9.36-9.36Z"/>
      <path class="cls-1" d="M61.97,55.97c-.19,0-.34-.06-.46-.18-.12-.12-.18-.27-.18-.46v-4.65h-4.53c-.19,0-.34-.06-.47-.18s-.19-.27-.19-.46v-1.86c0-.19.06-.34.19-.46s.28-.18.47-.18h4.53v-4.53c0-.19.06-.34.18-.46s.27-.18.46-.18h2.09c.17,0,.32.06.45.18.13.12.19.27.19.46v4.53h4.5c.19,0,.34.06.46.18.12.12.18.27.18.46v1.86c0,.19-.06.34-.18.46-.12.12-.27.18-.46.18h-4.5v4.65c0,.19-.06.34-.19.46s-.28.18-.45.18h-2.09Z"/>
    </g>
  </g>
</svg>