<?xml version="1.0" encoding="UTF-8"?>
<svg id="Capa_2" data-name="Capa 2" xmlns="http://www.w3.org/2000/svg" viewBox="0 0 76.15 62.34">
  <defs>
    <style>
      .cls-1 {
        fill: #c9d5e1;
      }

      .cls-1, .cls-2 {
        stroke-width: 0px;
      }

      .cls-2 {
        fill: none;
      }
    </style>
  </defs>
  <g id="Capa_1-2" data-name="Capa 1">
    <g>
      <path class="cls-2" d="M62.99,39.81c-5.16,0-9.36,4.2-9.36,9.36s4.2,9.36,9.36,9.36,9.36-4.2,9.36-9.36-4.2-9.36-9.36-9.36ZM69.65,50.5c-.12.12-.27.18-.46.18h-4.5v4.65c0,.19-.06.34-.19.46-.13.12-.28.18-.45.18h-2.09c-.19,0-.34-.06-.46-.18-.12-.12-.18-.27-.18-.46v-4.65h-4.53c-.19,0-.34-.06-.47-.18s-.19-.27-.19-.46v-1.86c0-.19.06-.34.19-.46s.28-.18.47-.18h4.53v-4.53c0-.19.06-.34.18-.46.12-.12.27-.18.46-.18h2.09c.17,0,.32.06.45.18.13.12.19.27.19.46v4.53h4.5c.19,0,.34.06.46.18.12.12.18.27.18.46v1.86c0,.19-.06.34-.18.46Z"/>
      <path class="cls-1" d="M47.24,47.83c-9.91,0-19.81,0-29.72,0-1.85,0-3.62-.3-5.23-1.22-3.6-2.04-5.4-5.19-5.44-9.29-.05-5.72-.01-11.44-.01-17.16v-.67c-.18.15-.24.32-.3.49-.98,3.27-1.96,6.53-2.94,9.8-1.2,4-2.39,8-3.59,11.99v1.79c.04.05.09.1.1.15.58,2.69,2.23,4.32,4.88,5.01,3.55.93,7.08,1.89,10.62,2.84,10.35,2.77,20.71,5.55,31.06,8.32,1.57.42,3.1.26,4.39-.35-2.42-2.78-3.89-6.4-3.89-10.37,0-.45.03-.9.07-1.34Z"/>
      <path class="cls-1" d="M11.11,38.36c.74,3.29,3.43,5.36,6.94,5.36,6.73,0,13.45,0,20.18,0,3.3,0,6.61,0,9.91,0,2.22-6.05,8.02-10.37,14.84-10.37.89,0,1.76.09,2.62.23,0-8.8,0-17.6,0-26.4C65.61,2.91,62.68,0,58.39,0,44.98,0,31.57,0,18.16,0c-4.31,0-7.23,2.92-7.23,7.24,0,9.76,0,19.52,0,29.28,0,.61.04,1.24.18,1.84ZM31.19,14.77c0-1.1.7-1.99,1.74-2.25.61-.15,1.17-.02,1.7.29,1.85,1.08,3.71,2.14,5.56,3.21,1.94,1.12,3.89,2.25,5.83,3.37.65.38,1.06.94,1.2,1.68.19,1.02-.23,1.97-1.12,2.53-1.7,1.08-3.41,2.15-5.11,3.23-2.12,1.34-4.23,2.68-6.35,4.01-1.2.75-2.72.31-3.25-.96-.13-.3-.19-.65-.19-.97-.02-2.36,0-4.72,0-7.08s0-4.72,0-7.08Z"/>
      <path class="cls-1" d="M62.99,36.01c-7.26,0-13.16,5.9-13.16,13.16s5.9,13.16,13.16,13.16,13.16-5.9,13.16-13.16-5.9-13.16-13.16-13.16ZM62.99,58.54c-5.16,0-9.36-4.2-9.36-9.36s4.2-9.36,9.36-9.36,9.36,4.2,9.36,9.36-4.2,9.36-9.36,9.36Z"/>
      <path class="cls-1" d="M69.65,47.73c-.12-.12-.27-.18-.46-.18h-4.5v-4.53c0-.19-.06-.34-.19-.46-.13-.12-.28-.18-.45-.18h-2.09c-.19,0-.34.06-.46.18-.12.12-.18.27-.18.46v4.53h-4.53c-.19,0-.34.06-.47.18s-.19.27-.19.46v1.86c0,.19.06.34.19.46s.28.18.47.18h4.53v4.65c0,.19.06.34.18.46.12.12.27.18.46.18h2.09c.17,0,.32-.06.45-.18.13-.12.19-.27.19-.46v-4.65h4.5c.19,0,.34-.06.46-.18.12-.12.18-.27.18-.46v-1.86c0-.19-.06-.34-.18-.46Z"/>
    </g>
  </g>
</svg>