<?xml version="1.0" encoding="UTF-8"?>
<svg id="Capa_2" data-name="Capa 2" xmlns="http://www.w3.org/2000/svg" viewBox="0 0 58.96 59.02">
  <defs>
    <style>
      .cls-1 {
        fill: #9ba9bd;
        stroke-width: 0px;
      }
    </style>
  </defs>
  <g id="Capa_1-2" data-name="Capa 1">
    <g>
      <path class="cls-1" d="M40.24,59.02h-21.52C8.4,59.02,0,50.62,0,40.3v-21.58C0,8.4,8.4,0,18.72,0h21.52c10.32,0,18.72,8.4,18.72,18.72v21.58c0,10.32-8.4,18.72-18.72,18.72ZM18.72,4.03c-8.1,0-14.69,6.59-14.69,14.69v21.58c0,8.1,6.59,14.69,14.69,14.69h21.52c8.1,0,14.69-6.59,14.69-14.69v-21.58c0-8.1-6.59-14.69-14.69-14.69h-21.52Z"/>
      <path class="cls-1" d="M28.1,42.2c-.32,0-.59-.11-.81-.33-.22-.22-.33-.49-.33-.81v-9.27h-9.13c-.32,0-.59-.11-.81-.33-.22-.22-.33-.49-.33-.81v-2.52c0-.35.11-.63.33-.83.22-.21.49-.31.81-.31h9.13v-9.03c0-.32.11-.59.33-.81.22-.22.49-.33.81-.33h2.76c.35,0,.63.11.83.33.21.22.31.49.31.81v9.03h9.13c.32,0,.59.1.81.31.22.21.33.48.33.83v2.52c0,.32-.11.59-.33.81-.22.22-.49.33-.81.33h-9.13v9.27c0,.32-.1.59-.31.81-.21.22-.48.33-.83.33h-2.76Z"/>
    </g>
  </g>
</svg>