<?xml version="1.0" encoding="UTF-8"?>
<svg id="Capa_2" data-name="Capa 2" xmlns="http://www.w3.org/2000/svg" viewBox="0 0 46.93 28.05">
  <defs>
    <style>
      .cls-1 {
        fill: #9ba9bd;
        stroke-width: 0px;
      }
    </style>
  </defs>
  <g id="Capa_1-2" data-name="Capa 1">
    <g>
      <path class="cls-1" d="M.83,27.65c-.21,0-.4-.08-.57-.24-.17-.16-.26-.36-.26-.59,0-.11.03-.22.08-.36L9.6.99c.08-.26.23-.49.45-.69.22-.2.53-.3.93-.3h4.31c.4,0,.7.1.91.3.21.2.37.43.47.69l9.52,25.48c.03.13.04.25.04.36,0,.24-.08.43-.24.59s-.34.24-.55.24h-3.44c-.37,0-.64-.09-.81-.26-.17-.17-.28-.34-.34-.49l-1.86-4.82H7.27l-1.86,4.82c-.05.16-.17.32-.34.49s-.44.26-.81.26H.83ZM8.65,17.54h8.97l-4.5-12.21-4.46,12.21Z"/>
      <path class="cls-1" d="M35.39,28.05c-1.37,0-2.61-.27-3.71-.81s-1.98-1.26-2.63-2.17-.97-1.93-.97-3.06c0-1.84.74-3.31,2.23-4.4,1.49-1.09,3.46-1.82,5.91-2.19l5.41-.79v-.83c0-1.11-.28-1.96-.83-2.57-.55-.61-1.5-.91-2.84-.91-.95,0-1.72.19-2.31.57-.59.38-1.03.89-1.32,1.52-.21.34-.51.51-.91.51h-3.12c-.29,0-.51-.08-.65-.24-.15-.16-.22-.37-.22-.63.03-.42.2-.93.51-1.54.32-.61.82-1.19,1.5-1.76.68-.57,1.57-1.05,2.65-1.44s2.38-.59,3.91-.59c1.66,0,3.06.2,4.21.61,1.15.41,2.06.95,2.75,1.64s1.19,1.49,1.5,2.41.47,1.9.47,2.92v12.4c0,.26-.09.49-.28.67-.19.18-.41.28-.67.28h-3.2c-.29,0-.52-.09-.69-.28-.17-.18-.26-.41-.26-.67v-1.54c-.34.5-.8.97-1.38,1.4-.58.43-1.28.79-2.11,1.07-.83.28-1.81.41-2.94.41ZM36.74,24.29c.92,0,1.76-.2,2.51-.59.75-.39,1.34-1.01,1.78-1.84.43-.83.65-1.88.65-3.14v-.83l-3.95.63c-1.55.24-2.71.62-3.48,1.15s-1.15,1.17-1.15,1.94c0,.58.18,1.07.53,1.48.36.41.81.71,1.36.91.55.2,1.13.3,1.74.3Z"/>
    </g>
  </g>
</svg>