<?xml version="1.0" encoding="UTF-8"?>
<svg id="Capa_2" data-name="Capa 2" xmlns="http://www.w3.org/2000/svg" viewBox="0 0 36.28 42">
  <defs>
    <style>
      .cls-1 {
        fill: #9ba9bd;
        stroke-width: 0px;
      }
    </style>
  </defs>
  <g id="Capa_1-2" data-name="Capa 1">
    <g>
      <path class="cls-1" d="M0,28.92c.2-.67.33-1.38.62-2.01,1.21-2.58,3.27-4.02,6.1-4.23,1.38-.1,2.77-.02,4.18-.02,0,.09.02.19,0,.27-.46,1.31-.53,2.67-.53,4.05,0,4.14,0,8.28,0,12.42,0,.85.08,1.69.12,2.57,0,0-.07.02-.15.02-2.05,0-4.09.03-6.14-.02-2.08-.05-3.61-1.34-4.12-3.35-.03-.11-.06-.21-.1-.32,0-3.13,0-6.25,0-9.38Z"/>
      <path class="cls-1" d="M24.72,41.99c-3.24,0-6.47,0-9.71,0-1.29,0-1.78-.49-1.78-1.77,0-4.8-.02-9.6.03-14.4.03-3.12,2.27-5.87,5.3-6.64.59-.15,1.21-.22,1.81-.23,3.03-.02,6.06-.04,9.08.02,3.11.06,5.87,2.31,6.6,5.34.16.66.22,1.37.22,2.05.02,4.62.01,9.24,0,13.87,0,1.26-.49,1.76-1.74,1.76-3.27,0-6.54,0-9.81,0Z"/>
      <path class="cls-1" d="M24.75,0c4.73,0,8.61,3.84,8.6,8.54-.01,4.78-3.75,8.64-8.6,8.64-4.86,0-8.59-3.88-8.6-8.65C16.15,3.84,20.03,0,24.75,0Z"/>
      <path class="cls-1" d="M9.65,8c3.52-.02,6.43,2.86,6.45,6.39.02,3.51-2.92,6.48-6.43,6.48-3.53,0-6.47-2.94-6.46-6.46.01-3.53,2.9-6.4,6.44-6.42Z"/>
    </g>
  </g>
</svg>