<?xml version="1.0" encoding="UTF-8"?>
<svg id="Capa_2" data-name="Capa 2" xmlns="http://www.w3.org/2000/svg" viewBox="0 0 44.01 44.02">
  <defs>
    <style>
      .cls-1 {
        fill: #9ba9bd;
        stroke-width: 0px;
      }
    </style>
  </defs>
  <g id="Capa_1-2" data-name="Capa 1">
    <g>
      <path class="cls-1" d="M26.49,40.75l-9.52-15.87c-.84-1.4-2.87-1.4-3.71,0l-9.51,15.87c-.86,1.44.17,3.27,1.85,3.27h19.02c1.68,0,2.72-1.83,1.85-3.27ZM20.12,40.36h-9.99c-.88,0-1.43-.96-.97-1.72l4.99-8.33c.44-.74,1.51-.74,1.95,0l5,8.33c.45.76-.09,1.72-.97,1.72Z"/>
      <path class="cls-1" d="M44.01,26.22c-.11.34-.2.68-.32,1.01-.74,2.03-2.66,3.37-4.81,3.38-3.47,0-6.93,0-10.4,0-2.8,0-5.1-2.31-5.1-5.12,0-3.47,0-6.93,0-10.4,0-2.8,2.31-5.11,5.1-5.12,3.44,0,6.87,0,10.31,0,2.53,0,4.6,1.67,5.13,4.15.02.08.06.15.09.23v11.87ZM40.58,20.32c0-1.65,0-3.29,0-4.94,0-1.27-.7-1.96-1.97-1.96-3.26,0-6.53,0-9.79,0-1.3,0-2,.68-2,1.98,0,3.26,0,6.53,0,9.79,0,1.3.69,1.99,1.99,1.99,3.26,0,6.53,0,9.79,0,1.27,0,1.97-.7,1.97-1.96,0-1.63,0-3.26,0-4.9Z"/>
      <path class="cls-1" d="M20.63,10.33c0,5.7-4.62,10.3-10.33,10.3C4.58,20.63,0,16.01,0,10.26,0,4.58,4.64,0,10.38,0c5.66,0,10.26,4.64,10.25,10.33ZM10.32,17.2c3.76,0,6.86-3.11,6.87-6.86,0-3.77-3.11-6.9-6.88-6.89-3.76,0-6.86,3.11-6.87,6.86,0,3.77,3.11,6.9,6.88,6.89Z"/>
    </g>
  </g>
</svg>