<?xml version="1.0" encoding="UTF-8"?>
<svg id="Capa_2" data-name="Capa 2" xmlns="http://www.w3.org/2000/svg" viewBox="0 0 46.42 46.42">
  <defs>
    <style>
      .cls-1 {
        fill: #bf96e2;
      }

      .cls-1, .cls-2 {
        stroke-width: 0px;
      }

      .cls-2 {
        fill: #fff;
      }
    </style>
  </defs>
  <g id="Capa_1-2" data-name="Capa 1">
    <g>
      <path class="cls-1" d="M23.21,46.42h0C10.39,46.42,0,36.03,0,23.21h0C0,10.39,10.39,0,23.21,0h0c12.82,0,23.21,10.39,23.21,23.21h0c0,12.82-10.39,23.21-23.21,23.21Z"/>
      <path class="cls-2" d="M11.74,23.22c0,6.33,5.13,11.46,11.46,11.46.73,0,1.45-.07,2.15-.2,1.01.61,2.19.96,3.46.96,3.69,0,6.69-3,6.69-6.69,0-1.3-.37-2.5-1.01-3.53.11-.65.18-1.32.18-2,0-6.33-5.13-11.46-11.46-11.46-.72,0-1.43.07-2.11.2-1.01-.62-2.2-.97-3.47-.97-3.7,0-6.69,3-6.69,6.69,0,1.29.37,2.49,1,3.51-.12.66-.18,1.34-.18,2.04ZM23.33,15.07c3.7.22,5.86,1.84,6.07,3.36.1.99-.56,1.76-1.7,1.76-1.67,0-1.84-2.23-4.72-2.23-1.3,0-2.4.54-2.4,1.71,0,2.45,9.23,1.03,9.23,6.42,0,3.11-2.49,5.14-6.2,5.14-3.26,0-6.55-1.48-6.53-4.03,0-.77.58-1.47,1.34-1.47,1.92,0,1.91,2.86,4.97,2.86,2.15,0,2.88-1.17,2.88-1.99,0-2.95-9.28-1.14-9.28-6.69,0-3,2.47-5.07,6.34-4.84Z"/>
    </g>
  </g>
</svg>