<?xml version="1.0" encoding="UTF-8"?>
<svg id="Capa_2" data-name="Capa 2" xmlns="http://www.w3.org/2000/svg" viewBox="0 0 46.42 46.42">
  <defs>
    <style>
      .cls-1 {
        fill: #fff;
        fill-rule: evenodd;
      }

      .cls-1, .cls-2 {
        stroke-width: 0px;
      }

      .cls-2 {
        fill: #bf96e2;
      }
    </style>
  </defs>
  <g id="Capa_1-2" data-name="Capa 1">
    <g>
      <path class="cls-2" d="M23.21,46.42h0C10.39,46.42,0,36.03,0,23.21h0C0,10.39,10.39,0,23.21,0h0c12.82,0,23.21,10.39,23.21,23.21h0c0,12.82-10.39,23.21-23.21,23.21Z"/>
      <path class="cls-1" d="M35.14,28.75h0s-.01-.01-.02-.02h0c-.29-.18-.59-.21-.77-.28,0,0-.01,0-.01,0-1.26-.4-2.35-1.26-3.17-2.31-.45-.59-.83-1.22-1.08-1.9h0c-.1-.3-.11-.63.04-.82,0,0,0,0,0,0,.23-.32.65-.53,1.09-.69h0c.5-.17,1.03-.37,1.48-.76,0,0,0,0,.01,0,.07-.06.15-.15.21-.27.01-.03.03-.06.03-.1.03-.12.03-.26-.03-.39h0c-.13-.26-.35-.4-.51-.5h0c-.27-.16-.6-.17-.88-.08h0c-.3.09-.55.2-.78.23,0,0-.01,0-.02,0-.32.06-.64.07-.89-.02,0-.03,0-.11-.02-.2h0c-.02-.54.03-1.09.03-1.67h0c.03-.88.06-1.77-.07-2.68h0c-.29-1.54-1.26-2.85-2.51-3.72-.9-.64-1.97-.99-3.06-1.09h0c-.37-.03-.74-.04-1.1-.04-1.47.01-3,.4-4.19,1.33-.89.7-1.6,1.63-2.04,2.66h0c-.42,1.07-.39,2.2-.33,3.25h0c.03.74.12,1.45.05,2.14,0,.02,0,.03-.01.05-.33.06-.69.04-1.05-.03h0c-.25-.04-.51-.14-.81-.22,0,0-.01,0-.02,0-.29-.06-.57.02-.78.18,0,0-.01,0-.01,0,0,0-.01,0-.01.01-.18.11-.42.31-.43.64,0,.02,0,.04,0,.06,0,0,0,0,0,0,.03.2.16.34.27.44.11.1.21.16.27.21,0,0,.01,0,.02.01.54.36,1.13.51,1.65.72h0c.36.16.67.4.74.7.09.39-.08.83-.29,1.26h0c-.58,1.15-1.44,2.14-2.51,2.87-.56.38-1.19.67-1.84.84,0,0-.02,0-.03.01-.13.05-.45.08-.65.38-.01.02-.02.04-.03.07-.07.19.01.4.11.51.09.11.19.17.28.22,0,0,.01,0,.02,0,.55.32,1.15.45,1.7.59,0,0,0,0,0,0,.4.08.77.13,1.06.26.01.02.04.12.11.29.1.3.15.65.26,1.03.03.1.12.18.23.21.25.06.39-.03.41-.03h.03c.92-.16,1.84-.3,2.68-.1h0c.88.23,1.66.84,2.52,1.36h0c.58.36,1.24.72,2.01.74h0c.58.03,1.15,0,1.71-.04h.01c.48-.04.93-.21,1.34-.46,0,0,.01-.01.02-.01.91-.52,1.72-1.14,2.61-1.53h0c.29-.1.65-.1,1.05-.12h.01c.74-.02,1.47.02,2.2.11.02,0,.05,0,.07,0,.1-.01.2-.08.25-.14.06-.06.07-.12.08-.16.02-.07.04-.11,0-.04.01-.02.02-.04.03-.06.13-.44.21-.84.42-1.08.1-.1.26-.14.45-.14h.04c.64-.07,1.21-.3,1.75-.49,0,0,.02,0,.02,0,.2-.09.5-.19.71-.48h0c.17-.25.09-.58-.15-.72h0Z"/>
    </g>
  </g>
</svg>