<?xml version="1.0" encoding="UTF-8"?>
<svg id="Capa_2" data-name="Capa 2" xmlns="http://www.w3.org/2000/svg" viewBox="0 0 46.42 46.42">
  <defs>
    <style>
      .cls-1 {
        fill: #bf96e2;
      }

      .cls-1, .cls-2 {
        stroke-width: 0px;
      }

      .cls-2 {
        fill: #fff;
      }
    </style>
  </defs>
  <g id="Capa_1-2" data-name="Capa 1">
    <g>
      <path class="cls-1" d="M23.21,46.42h0C10.39,46.42,0,36.03,0,23.21h0C0,10.39,10.39,0,23.21,0h0c12.82,0,23.21,10.39,23.21,23.21h0c0,12.82-10.39,23.21-23.21,23.21Z"/>
      <path class="cls-2" d="M23.21,11.18c-6.65,0-12.03,5.39-12.03,12.03s5.39,12.03,12.03,12.03,12.03-5.39,12.03-12.03-5.39-12.03-12.03-12.03ZM28.75,28.57c-.24.36-.66.48-1.02.24-2.83-1.74-6.38-2.11-10.59-1.14-.42.12-.78-.18-.9-.54-.12-.42.18-.78.54-.9,4.57-1.02,8.54-.6,11.67,1.32.42.18.48.66.3,1.02ZM30.19,25.26c-.3.42-.84.6-1.26.3-3.25-1.99-8.18-2.59-11.97-1.38-.48.12-1.02-.12-1.14-.6-.12-.48.12-1.02.6-1.14,4.39-1.32,9.81-.66,13.54,1.62.36.18.54.78.24,1.2ZM30.31,21.89c-3.85-2.29-10.29-2.53-13.96-1.38-.6.18-1.2-.18-1.38-.72-.18-.6.18-1.2.72-1.38,4.27-1.26,11.31-1.02,15.76,1.62.54.3.72,1.02.42,1.56-.3.42-1.02.6-1.56.3Z"/>
    </g>
  </g>
</svg>