<?xml version="1.0" encoding="UTF-8"?>
<svg id="Capa_2" data-name="Capa 2" xmlns="http://www.w3.org/2000/svg" viewBox="0 0 46.54 46.54">
  <defs>
    <style>
      .cls-1 {
        fill: #bf96e2;
      }

      .cls-1, .cls-2 {
        stroke-width: 0px;
      }

      .cls-2 {
        fill: #fff;
      }
    </style>
  </defs>
  <g id="Capa_1-2" data-name="Capa 1">
    <g>
      <path class="cls-1" d="M46.54,23.27c0,12.85-10.42,23.27-23.27,23.27h0C10.42,46.54,0,36.12,0,23.27h0C0,10.42,10.42,0,23.27,0h0c12.85,0,23.27,10.42,23.27,23.27h0Z"/>
      <path class="cls-2" d="M27.88,29.26v-11.53s1.3,2.17,6,2.3c.25,0,.46-.2.46-.45v-3.26c0-.24-.19-.43-.44-.45-3.64-.21-5.38-3-5.55-5.57-.02-.24-.22-.42-.46-.42h-3.72c-.25,0-.45.2-.45.45v18.33c0,1.99-1.52,3.72-3.51,3.82-2.27.11-4.12-1.84-3.84-4.15.2-1.63,1.51-2.96,3.13-3.19.32-.04.64-.05.94-.01.27.03.51-.17.51-.44v-3.27c0-.23-.18-.43-.41-.45-.47-.03-.94-.02-1.43.04-3.58.41-6.48,3.31-6.87,6.89-.52,4.73,3.17,8.74,7.79,8.74,4.33,0,7.84-3.51,7.84-7.84"/>
    </g>
  </g>
</svg>