<?xml version="1.0" encoding="UTF-8"?>
<svg id="Capa_2" data-name="Capa 2" xmlns="http://www.w3.org/2000/svg" viewBox="0 0 46.42 46.42">
  <defs>
    <style>
      .cls-1 {
        fill: #bf96e2;
      }

      .cls-1, .cls-2 {
        stroke-width: 0px;
      }

      .cls-2 {
        fill: #fff;
      }
    </style>
  </defs>
  <g id="Capa_1-2" data-name="Capa 1">
    <g>
      <path class="cls-1" d="M23.21,46.42h0C10.39,46.42,0,36.03,0,23.21h0C0,10.39,10.39,0,23.21,0h0c12.82,0,23.21,10.39,23.21,23.21h0c0,12.82-10.39,23.21-23.21,23.21Z"/>
      <path class="cls-2" d="M35.54,16.98c-.3-1.11-1.17-1.99-2.28-2.29-2.01-.54-10.06-.54-10.06-.54,0,0-8.05,0-10.06.54-1.11.3-1.98,1.18-2.28,2.29-.54,2.02-.54,6.24-.54,6.24,0,0,0,4.22.54,6.24.3,1.11,1.17,1.99,2.28,2.29,2.01.54,10.06.54,10.06.54,0,0,8.05,0,10.06-.54,1.11-.3,1.98-1.18,2.28-2.29.54-2.02.54-6.24.54-6.24,0,0,0-4.22-.54-6.24ZM20.58,27.04v-7.65l6.73,3.83-6.73,3.83Z"/>
    </g>
  </g>
</svg>