<?xml version="1.0" encoding="UTF-8"?>
<svg id="Capa_2" data-name="Capa 2" xmlns="http://www.w3.org/2000/svg" viewBox="0 0 52.94 52.92">
  <defs>
    <style>
      .cls-1 {
        fill: #9ba9bd;
        stroke-width: 0px;
      }
    </style>
  </defs>
  <g id="Capa_1-2" data-name="Capa 1">
    <path class="cls-1" d="M52.94,20.9c-.05.46-.1.93-.16,1.39-.48,3.85-1.96,7.28-4.44,10.25-2.97,3.55-6.72,5.83-11.26,6.74-5.1,1.03-9.9.17-14.36-2.54-.31-.19-.61-.39-.9-.59-.3-.2-.58-.42-.94-.67-.07.1-.12.2-.21.28-5.43,5.43-10.86,10.86-16.28,16.29-.56.56-1.19.91-1.99.86-1.03-.05-1.78-.56-2.19-1.5-.4-.93-.25-1.81.4-2.6.1-.12.21-.22.32-.33,5.42-5.42,10.83-10.83,16.25-16.25.08-.08.18-.13.22-.16-.56-.87-1.11-1.66-1.59-2.5-1.93-3.4-2.79-7.06-2.54-10.96.49-7.58,5.05-14.02,12.02-17.04C27.37.7,29.54.19,31.78.05c.09,0,.17-.03.26-.05.7,0,1.4,0,2.11,0,.09.02.17.04.26.05.8.1,1.61.15,2.4.31,4.47.87,8.22,3.02,11.22,6.44,2.67,3.04,4.25,6.59,4.75,10.61.06.46.1.93.15,1.39v2.11ZM18.21,19.85c0,8.19,6.67,14.87,14.84,14.87,8.24,0,14.92-6.65,14.92-14.87,0-8.22-6.67-14.89-14.88-14.89-8.22,0-14.88,6.67-14.88,14.89Z"/>
  </g>
</svg>