<?xml version="1.0" encoding="UTF-8"?>
<svg id="Capa_2" data-name="Capa 2" xmlns="http://www.w3.org/2000/svg" viewBox="0 0 46.66 46.66">
  <defs>
    <style>
      .cls-1, .cls-2 {
        fill: #000;
        stroke-width: 0px;
      }

      .cls-2 {
        fill-rule: evenodd;
      }
    </style>
  </defs>
  <g id="Capa_1-2" data-name="Capa 1">
    <g>
      <path class="cls-1" d="M23.33,3.19c11.1,0,20.14,9.03,20.14,20.14s-9.03,20.13-20.14,20.13S3.19,34.43,3.19,23.33,12.23,3.19,23.33,3.19M23.33,0C10.44,0,0,10.44,0,23.33s10.44,23.33,23.33,23.33,23.33-10.44,23.33-23.33S36.21,0,23.33,0h0Z"/>
      <path class="cls-2" d="M26.33,14.67c.85-.03,1.7,0,2.55,0h.35v-4.41c-.45-.05-.93-.11-1.4-.13-.87-.04-1.74-.08-2.61-.06-1.33.03-2.59.35-3.69,1.14-1.26.91-1.95,2.18-2.22,3.68-.11.62-.14,1.26-.15,1.89-.02.99,0,1.98,0,2.97v.37h-4.22v4.93h4.2v12.39h5.13v-12.37h4.18c.21-1.64.42-3.26.64-4.95-.34,0-.64,0-.94,0-1.19,0-3.92,0-3.92,0,0,0,.01-2.44.04-3.5.04-1.45.9-1.9,2.07-1.94Z"/>
    </g>
  </g>
</svg>