<?xml version="1.0" encoding="UTF-8"?>
<svg id="Capa_2" data-name="Capa 2" xmlns="http://www.w3.org/2000/svg" viewBox="0 0 46.66 46.66">
  <defs>
    <style>
      .cls-1 {
        fill: #000;
        stroke-width: 0px;
      }
    </style>
  </defs>
  <g id="Capa_1-2" data-name="Capa 1">
    <g>
      <path class="cls-1" d="M23.33,3.19c11.1,0,20.14,9.03,20.14,20.14s-9.03,20.13-20.14,20.13S3.19,34.43,3.19,23.33,12.23,3.19,23.33,3.19M23.33,0C10.44,0,0,10.44,0,23.33s10.44,23.33,23.33,23.33,23.33-10.44,23.33-23.33S36.21,0,23.33,0h0Z"/>
      <path class="cls-1" d="M35.73,17.22c-.17-1.63-.79-3.06-2-4.22-1.27-1.21-2.83-1.75-4.53-1.84-2.9-.16-9.8-.26-12.22.14-2.77.45-4.58,2.07-5.35,4.8-.59,2.1-.47,11.79-.13,13.87.47,2.84,2.15,4.66,4.96,5.39,1.95.5,11.53.44,13.68.09,2.84-.46,4.67-2.13,5.41-4.94.56-2.16.37-11.34.17-13.29ZM33.46,29.57c-.33,2.16-1.76,3.5-3.93,3.73-1.99.22-10.9.34-12.74-.18-1.77-.49-2.78-1.71-3.07-3.49-.28-1.7-.35-10.2,0-12.47.33-2.14,1.76-3.48,3.92-3.72,2.19-.25,10.07-.27,12.16.05,2.15.33,3.49,1.77,3.73,3.94.22,2.03.28,9.95-.05,12.13ZM23.58,17.04c-3.5,0-6.34,2.83-6.34,6.33,0,3.5,2.83,6.34,6.33,6.34s6.34-2.83,6.34-6.33c0-3.5-2.83-6.34-6.33-6.34ZM23.53,27.47c-2.26-.02-4.08-1.87-4.06-4.13.02-2.26,1.87-4.08,4.13-4.06,2.26.02,4.08,1.87,4.06,4.13-.02,2.26-1.87,4.08-4.13,4.06ZM31.64,16.8c0,.82-.67,1.48-1.49,1.48-.82,0-1.48-.67-1.48-1.49,0-.82.67-1.48,1.49-1.48.82,0,1.48.67,1.48,1.49Z"/>
      <path class="cls-1" d="M35.73,17.22c-.17-1.63-.79-3.06-2-4.22-1.27-1.21-2.83-1.75-4.53-1.84-2.9-.16-9.8-.26-12.22.14-2.77.45-4.58,2.07-5.35,4.8-.59,2.1-.47,11.79-.13,13.87.47,2.84,2.15,4.66,4.96,5.39,1.95.5,11.53.44,13.68.09,2.84-.46,4.67-2.13,5.41-4.94.56-2.16.37-11.34.17-13.29ZM33.46,29.57c-.33,2.16-1.76,3.5-3.93,3.73-1.99.22-10.9.34-12.74-.18-1.77-.49-2.78-1.71-3.07-3.49-.28-1.7-.35-10.2,0-12.47.33-2.14,1.76-3.48,3.92-3.72,2.19-.25,10.07-.27,12.16.05,2.15.33,3.49,1.77,3.73,3.94.22,2.03.28,9.95-.05,12.13ZM23.58,17.04c-3.5,0-6.34,2.83-6.34,6.33,0,3.5,2.83,6.34,6.33,6.34s6.34-2.83,6.34-6.33c0-3.5-2.83-6.34-6.33-6.34ZM23.53,27.47c-2.26-.02-4.08-1.87-4.06-4.13.02-2.26,1.87-4.08,4.13-4.06,2.26.02,4.08,1.87,4.06,4.13-.02,2.26-1.87,4.08-4.13,4.06ZM31.64,16.8c0,.82-.67,1.48-1.49,1.48-.82,0-1.48-.67-1.48-1.49,0-.82.67-1.48,1.49-1.48.82,0,1.48.67,1.48,1.49Z"/>
    </g>
  </g>
</svg>