<?xml version="1.0" encoding="UTF-8"?>
<svg id="Capa_2" data-name="Capa 2" xmlns="http://www.w3.org/2000/svg" viewBox="0 0 46.66 46.66">
  <defs>
    <style>
      .cls-1, .cls-2 {
        fill: #000;
        stroke-width: 0px;
      }

      .cls-2 {
        fill-rule: evenodd;
      }
    </style>
  </defs>
  <g id="Capa_1-2" data-name="Capa 1">
    <g>
      <path class="cls-1" d="M23.33,3.19c11.1,0,20.14,9.03,20.14,20.13s-9.03,20.14-20.14,20.14S3.19,34.43,3.19,23.33,12.23,3.19,23.33,3.19M23.33,0C10.44,0,0,10.44,0,23.33s10.44,23.33,23.33,23.33,23.33-10.44,23.33-23.33S36.21,0,23.33,0h0Z"/>
      <path class="cls-2" d="M21.63,28.64c-.02.08-.04.14-.06.21-.98,3.85-1.09,4.7-2.1,6.49-.48.85-1.02,1.66-1.62,2.43-.07.09-.13.2-.27.17-.15-.03-.16-.16-.18-.28-.16-1.17-.25-2.34-.21-3.52.05-1.54.24-2.07,2.22-10.41.03-.13,0-.23-.05-.35-.47-1.28-.57-2.58-.15-3.9.9-2.84,4.12-3.06,4.69-.72.35,1.45-.57,3.35-1.28,6.16-.58,2.32,2.14,3.96,4.47,2.27,2.15-1.56,2.98-5.3,2.83-7.95-.31-5.28-6.1-6.42-9.78-4.72-4.21,1.95-5.17,7.17-3.27,9.56.24.3.43.49.35.8-.12.48-.23.96-.36,1.43-.1.35-.39.48-.75.34-.7-.28-1.29-.73-1.76-1.32-1.62-2-2.08-5.96.06-9.31,2.37-3.71,6.77-5.21,10.79-4.76,4.8.55,7.83,3.82,8.4,7.55.26,1.69.07,5.87-2.31,8.83-2.74,3.39-7.17,3.62-9.22,1.54-.16-.16-.28-.35-.44-.54Z"/>
    </g>
  </g>
</svg>