<?xml version="1.0" encoding="UTF-8"?>
<svg xmlns="http://www.w3.org/2000/svg" viewBox="0 0 46.66 46.66">
  <defs>
    <style>
      .cls-1, .cls-2 {
        fill: #000;
        stroke-width: 0px;
      }

      .cls-3 {
        isolation: isolate;
      }

      .cls-2 {
        mix-blend-mode: multiply;
      }
    </style>
  </defs>
  <g class="cls-3">
    <g id="Capa_2" data-name="Capa 2">
      <g id="Capa_1-2" data-name="Capa 1">
        <g>
          <path class="cls-1" d="M23.33,3.19c11.1,0,20.14,9.03,20.14,20.14s-9.03,20.14-20.14,20.14S3.19,34.43,3.19,23.33,12.23,3.19,23.33,3.19M23.33,0C10.44,0,0,10.44,0,23.33s10.44,23.33,23.33,23.33,23.33-10.44,23.33-23.33S36.21,0,23.33,0h0Z"/>
          <path class="cls-2" d="M23.45,11.45c3.48,0,6.3,2.82,6.3,6.3v3.78c.1.03.32.08.58.08.23,0,.51-.04.76-.17.35-.18.67-.31.97-.31.26,0,.5.1.75.35.53.54-.03,1.05-.89,1.39-.79.31-2.03.63-2.06,1.66.29,1.27,1.14,2.63,2.72,3.83,1.34,1.01,2.19,1.09,2.62,1.09.08,0,.15,0,.2,0,.09,0,.14,0,.15.05.05.2.21,1.01-1.31,1.4-1.52.39-1.83.13-2.14.92-.3.79-.19,1.14-.57,1.14-.26,0-1.41-.22-2.41-.22-.46,0-.9.05-1.2.18-.93.42-2.41,2.2-4.6,2.3-2.19-.11-3.66-1.88-4.6-2.3-.3-.14-.74-.18-1.2-.18-1.01,0-2.15.22-2.41.22-.38,0-.27-.34-.57-1.14-.3-.79-.62-.53-2.14-.92-1.52-.39-1.36-1.2-1.31-1.4.01-.04.06-.05.15-.05.05,0,.12,0,.2,0,.43,0,1.28-.08,2.62-1.09,1.58-1.2,2.43-2.56,2.72-3.83-.03-1.03-1.26-1.35-2.06-1.66-.86-.34-1.42-.85-.89-1.39.25-.25.49-.35.75-.35.3,0,.62.13.97.31.26.13.53.17.76.17.26,0,.48-.05.58-.08v-3.78c0-3.48,2.82-6.3,6.3-6.3h.24M23.45,10.53h-.24c-3.98,0-7.22,3.24-7.22,7.22v2.88s0,0,0,0c-.42-.22-.87-.42-1.39-.42-.52,0-1,.21-1.4.62-.52.53-.5,1.08-.44,1.36.14.63.69,1.15,1.65,1.52.1.04.2.08.31.12.45.16,1.04.39,1.15.64-.22.82-.81,1.99-2.35,3.15-1.19.91-1.85.91-2.07.91h-.1s-.1,0-.1,0c-.81,0-1,.62-1.04.74-.23.91.17,2.05,1.97,2.51.49.13.87.19,1.14.23.12.02.26.04.34.06,0,.02.02.04.03.06.09.22.13.4.17.56.08.32.29,1.16,1.25,1.16.14,0,.31-.02.65-.07.46-.06,1.16-.15,1.77-.15.55,0,.77.08.83.1.19.08.49.31.82.56.97.73,2.3,1.73,4.11,1.82h.04s.04,0,.04,0c1.81-.09,3.14-1.09,4.11-1.82.32-.24.63-.48.82-.56.05-.02.27-.1.83-.1.61,0,1.3.09,1.77.15.34.04.5.07.65.07.96,0,1.17-.85,1.25-1.16.04-.16.08-.34.17-.56.01-.03.02-.05.03-.06.09-.02.22-.04.34-.06.28-.05.65-.11,1.14-.23,1.8-.46,2.2-1.6,1.97-2.51-.03-.12-.23-.74-1.03-.74h-.1s-.1,0-.1,0c-.22,0-.87,0-2.07-.91-1.53-1.16-2.13-2.33-2.35-3.15.1-.26.7-.48,1.15-.64.11-.04.21-.08.31-.12.96-.38,1.51-.89,1.65-1.52.06-.28.08-.83-.44-1.36-.41-.41-.88-.62-1.4-.62s-.97.2-1.39.42c0,0,0,0,0,0v-2.88c0-3.98-3.24-7.22-7.22-7.22h0Z"/>
        </g>
      </g>
    </g>
  </g>
</svg>