<?xml version="1.0" encoding="UTF-8"?>
<svg id="Capa_2" data-name="Capa 2" xmlns="http://www.w3.org/2000/svg" viewBox="0 0 46.66 46.66">
  <defs>
    <style>
      .cls-1 {
        fill: #000;
        stroke-width: 0px;
      }
    </style>
  </defs>
  <g id="Capa_1-2" data-name="Capa 1">
    <g>
      <path class="cls-1" d="M23.33,3.19c11.1,0,20.13,9.03,20.13,20.14s-9.03,20.13-20.13,20.13S3.19,34.43,3.19,23.33,12.23,3.19,23.33,3.19M23.33,0C10.44,0,0,10.44,0,23.33s10.44,23.33,23.33,23.33,23.33-10.44,23.33-23.33S36.21,0,23.33,0h0Z"/>
      <path class="cls-1" d="M11.25,34.87c3-3.43,5.95-6.81,8.92-10.2.03-.04.03-.09,0-.13-3.14-4.11-6.28-8.21-9.45-12.36-.05-.07,0-.16.08-.16h.12c2.49,0,4.97,0,7.46,0,.21,0,.33.07.45.23,1.76,2.34,3.52,4.67,5.29,7,0,0,.02.02.02.03.04.05.11.05.15,0,.25-.28.5-.56.74-.84,1.81-2.06,3.61-4.13,5.42-6.2.14-.16.27-.23.49-.22,1.09.01,2.19,0,3.28,0h.11c.09,0,.13.1.08.17-2.8,3.19-5.55,6.35-8.33,9.52-.03.04-.03.09,0,.13,3.28,4.33,6.56,8.67,9.86,13.03.05.06,0,.16-.07.16-.03,0-.06,0-.09,0-2.45,0-4.89,0-7.34,0-.18,0-.28-.06-.39-.2-1.95-2.56-3.91-5.12-5.87-7.68-.02-.02-.03-.04-.05-.07-.04-.05-.11-.05-.15,0-.21.24-.42.47-.63.71-2.04,2.33-4.07,4.65-6.1,6.98-.16.18-.32.26-.57.26-1.08-.01-2.16,0-3.23,0-.04,0-.07,0-.11,0-.09,0-.13-.1-.08-.17ZM15.36,14.23c-.08,0-.13.09-.08.16,0,0,0,0,0,0,.7.91,1.4,1.83,2.1,2.74,3.88,5.07,7.76,10.14,11.63,15.22.19.25.37.39.69.35.28-.03.56,0,.84,0h.69c.08,0,.13-.09.08-.16-.03-.05-.06-.08-.09-.12-3.27-4.33-6.55-8.65-9.82-12.98-1.26-1.67-2.53-3.34-3.8-5.01-.06-.08-.17-.18-.26-.19-.65-.01-1.31,0-2,0Z"/>
    </g>
  </g>
</svg>