<?xml version="1.0" encoding="UTF-8"?>
<svg id="Capa_2" data-name="Capa 2" xmlns="http://www.w3.org/2000/svg" viewBox="0 0 46.66 46.66">
  <defs>
    <style>
      .cls-1, .cls-2 {
        fill: #000;
        stroke-width: 0px;
      }

      .cls-2 {
        fill-rule: evenodd;
      }
    </style>
  </defs>
  <g id="Capa_1-2" data-name="Capa 1">
    <g>
      <path class="cls-1" d="M23.33,3.19c11.1,0,20.13,9.03,20.13,20.13s-9.03,20.14-20.13,20.14S3.19,34.43,3.19,23.33,12.23,3.19,23.33,3.19M23.33,0C10.44,0,0,10.44,0,23.33s10.44,23.33,23.33,23.33,23.33-10.44,23.33-23.33S36.21,0,23.33,0h0Z"/>
      <path class="cls-2" d="M13.59,31.42c-.93-.3-1.55-.91-1.88-1.83-.82-2.24-1.06-11.62.51-13.47.54-.63,1.23-1,2.05-1.09,4.23-.46,17.31-.39,18.81.15.88.32,1.51.9,1.85,1.78.89,2.32.92,10.75-.12,12.99-.28.61-.74,1.03-1.33,1.34-1.58.83-17.82.82-19.9.13ZM20.31,27.03c2.54-1.32,5.07-2.63,7.62-3.95-2.56-1.33-5.08-2.65-7.62-3.98v7.93Z"/>
    </g>
  </g>
</svg>