<?xml version="1.0" encoding="UTF-8"?>
<svg id="Capa_2" data-name="Capa 2" xmlns="http://www.w3.org/2000/svg" viewBox="0 0 59.24 69.1">
  <defs>
    <style>
      .cls-1 {
        fill: none;
        stroke-width: 0px;
      }
    </style>
  </defs>
  <g id="Capa_1-2" data-name="Capa 1">
    <path class="cls-1" d="M59.23,33.4c-.08,3.36-1.52,5.96-4.37,7.76-8.71,5.51-17.41,11.01-26.12,16.51-5.34,3.37-10.67,6.77-16.03,10.11-4.69,2.93-10.65.79-12.29-4.38-.24-.75-.39-1.56-.39-2.34C0,43.45-.01,25.83.02,8.22.03,3.53,3.94-.13,8.61,0c1.5.04,2.85.58,4.13,1.32,8.96,5.19,17.92,10.36,26.88,15.53,5,2.89,10.01,5.78,15.01,8.68,2.56,1.49,4.07,3.7,4.53,6.63.02.15.06.3.06.46.01.26,0,.51,0,.77Z"/>
  </g>
</svg>