<?xml version="1.0" encoding="UTF-8"?>
<svg id="Capa_2" data-name="Capa 2" xmlns="http://www.w3.org/2000/svg" viewBox="0 0 54.81 52.96">
  <defs>
    <style>
      .cls-1 {
        fill: #000;
        stroke-width: 0px;
      }
    </style>
  </defs>
  <g id="Capa_1-2" data-name="Capa 1">
    <path class="cls-1" d="M54.81,27.41v3.21c-.12.86-.21,1.73-.36,2.59-1,5.61-3.49,10.48-7.61,14.4-4.14,3.94-8.95,5.84-14.72,4.11-.16-.05-.39-.01-.54.08-2.64,1.59-5.26,1.54-7.87-.07-.17-.11-.47-.13-.66-.06-2.02.72-4.09.95-6.21.62-3.53-.54-6.48-2.24-8.99-4.71-4.16-4.07-6.66-9.02-7.55-14.78-.73-4.76-.16-9.36,1.98-13.7,2.2-4.45,5.82-7.03,10.72-7.74,3.48-.5,6.89-.09,10.23.99.13.04.33.03.44-.04.91-.62,1.89-1.05,2.95-1.21-.03-.47-.16-.91-.08-1.3.28-1.28.58-2.57.99-3.82,1.05-3.22,3.47-4.98,6.57-5.97.16-.05.43-.03.53.07.97.99,1.92,2.01,2.9,3.05-3.86,1.58-6.92,3.88-8.08,8.12.37.14.69.24.99.38.31.14.63.26.9.47.36.28.7.22,1.09.11,3.25-.91,6.55-1.24,9.89-.66,3.83.66,6.93,2.52,9.14,5.76,1.62,2.38,2.54,5.05,3.01,7.87.12.73.22,1.47.32,2.21ZM27.33,33.61c-1.4,1.16-2.75,2.29-4.12,3.42-2.37-1.55-4.7-3.08-6.99-4.58-.78.75-1.51,1.45-2.27,2.19-2.23-1.42-4.48-2.85-6.72-4.27-.03.03-.07.07-.1.1,2.27,3.5,4.55,7,6.83,10.52.76-.74,1.5-1.45,2.25-2.18,2.35,1.52,4.69,3.04,7.06,4.58,1.38-1.15,2.74-2.28,4.12-3.42,1.43,1.17,2.8,2.29,4.18,3.42,2.36-1.55,4.69-3.07,7.04-4.61.71.75,1.41,1.48,2.13,2.24,2.34-3.57,4.65-7.1,6.96-10.63-.03-.02-.06-.04-.09-.07-2.26,1.44-4.53,2.88-6.79,4.32-.79-.74-1.54-1.44-2.31-2.16-2.31,1.49-4.68,3.01-7.07,4.55-1.37-1.14-2.73-2.27-4.12-3.42ZM24.03,25.62c-3.87-1.65-7.66-3.25-11.46-4.87-.03.09-.05.12-.04.15.61,1.95,1.4,3.81,2.82,5.33,1.14,1.22,2.52,1.84,4.21,1.65,1.73-.2,3.13-1.08,4.48-2.27ZM42.98,20.76c-3.92,1.67-7.71,3.28-11.57,4.92.83.78,1.69,1.36,2.66,1.78,2.22.95,4.23.63,5.86-1,1.55-1.55,2.34-3.53,3.05-5.7Z"/>
  </g>
</svg>