<?xml version="1.0" encoding="UTF-8"?>
<svg id="Capa_2" data-name="Capa 2" xmlns="http://www.w3.org/2000/svg" viewBox="0 0 55.08 49.4">
  <defs>
    <style>
      .cls-1 {
        fill: #000;
        stroke-width: 0px;
      }
    </style>
  </defs>
  <g id="Capa_1-2" data-name="Capa 1">
    <path class="cls-1" d="M0,26.42c0-.79,0-1.58,0-2.37.03-.17.07-.35.1-.52.43-1.97.69-4,1.32-5.91,1.91-5.84,5.67-10.26,10.83-13.51C15.71,1.92,19.52.69,23.59.25c4.07-.44,8.12-.39,12.04.81,9.93,3.02,16.44,9.4,18.87,19.66.58,2.47.78,4.95.33,7.47-.69,3.82-2.62,6.93-5.49,9.49-2.42,2.16-5.23,3.62-8.27,4.66-.84.29-1.69.54-2.54.8,0,.26,0,.48,0,.69.04,3.9-3.94,5.84-6.93,4.9-.76-.24-1.27-.23-1.99.11-1.89.9-3.78.71-5.6-.35-.18-.11-.49-.18-.65-.1-1.75.93-4.34.69-5.89-.54-1.39-1.1-1.99-2.55-1.92-4.28.03-.63-.2-.85-.76-1.02-2.99-.9-5.78-2.22-8.23-4.19-3.11-2.5-5.3-5.61-6.14-9.57-.17-.78-.27-1.58-.41-2.37ZM23.36,23.11c0-2.25-.66-4.26-2.1-6.01-2.8-3.41-7.46-3.6-10.5-.41-3.45,3.62-3.31,9.74.3,13.22,2.64,2.54,6.57,2.63,9.3.19,2.07-1.86,3-4.23,3-6.98ZM31.06,23.12c-.01,2.29.64,4.34,2.11,6.12,2.7,3.27,7.4,3.53,10.27.55,3.53-3.65,3.53-9.64,0-13.29-2.53-2.61-6.6-2.8-9.33-.4-2.11,1.85-3.04,4.24-3.05,7.02ZM27.73,39.12c.23-.03.62-.05,1-.13,1.12-.23,1.69-.96,1.64-2.11-.07-1.46-.66-2.7-1.65-3.75-.69-.73-1.52-.81-2.32-.19-1.18.91-1.95,2.1-2.06,3.62-.06.76.2,1.4.83,1.88.71.53,1.54.64,2.56.69Z"/>
  </g>
</svg>