<?xml version="1.0" encoding="UTF-8"?>
<svg id="Capa_2" data-name="Capa 2" xmlns="http://www.w3.org/2000/svg" viewBox="0 0 54.81 48.4">
  <defs>
    <style>
      .cls-1 {
        fill: #000;
        stroke-width: 0px;
      }
    </style>
  </defs>
  <g id="Capa_1-2" data-name="Capa 1">
    <path class="cls-1" d="M54.81,14.58v2.25c-.03.15-.07.31-.08.46-.21,2.62-1.04,5.04-2.32,7.32-1.61,2.87-3.74,5.34-6.06,7.64-5.64,5.57-11.84,10.5-17.8,15.7-.71.62-1.55.58-2.29-.03-.62-.51-1.22-1.04-1.83-1.57-4.79-4.19-9.62-8.33-14.35-12.58-2.93-2.64-5.61-5.54-7.55-9.02-3.26-5.85-3.43-11.78-.16-17.67C4.19,3.82,6.99,1.64,10.6.61c3.85-1.09,7.55-.7,10.99,1.46,2.19,1.37,3.85,3.25,5.22,5.42.2.32.4.64.54.88,1.04-1.34,1.94-2.74,3.08-3.93C34.43.27,39.3-1.01,44.78.8c5.16,1.7,8.15,5.52,9.49,10.69.26,1.01.36,2.06.54,3.09Z"/>
  </g>
</svg>