<?xml version="1.0" encoding="UTF-8"?>
<svg id="Capa_2" data-name="Capa 2" xmlns="http://www.w3.org/2000/svg" viewBox="0 0 54.81 54.81">
  <defs>
    <style>
      .cls-1 {
        fill: #000;
        stroke-width: 0px;
      }
    </style>
  </defs>
  <g id="Capa_1-2" data-name="Capa 1">
    <path class="cls-1" d="M54.81,21.51v1.28c-.31,1.34-1.18,2.28-2.21,3.1-.08.07-.16.14-.24.21-3.17,2.83-6.34,5.65-9.5,8.48-.16.14-.33.42-.3.6.66,4.66,1.35,9.31,2.04,13.96.17,1.13.35,2.26-.18,3.36-.63,1.31-1.72,2-3.1,2.29h-.96c-1-.2-1.83-.74-2.66-1.3-3.28-2.25-6.57-4.48-9.85-6.73-.33-.23-.56-.23-.89,0-3.22,2.21-6.45,4.4-9.68,6.6-.85.58-1.69,1.19-2.72,1.43h-1.18s-.09-.07-.14-.08c-2.33-.58-3.51-2.35-3.16-4.76.71-4.87,1.42-9.74,2.16-14.6.06-.38-.05-.59-.31-.82-1.18-1.04-2.35-2.09-3.52-3.13-2.32-2.07-4.64-4.13-6.95-6.2-1.25-1.12-1.76-2.52-1.3-4.15.47-1.65,1.63-2.62,3.32-2.87,4.66-.67,9.32-1.3,13.98-1.93.4-.05.58-.21.73-.56,1.17-2.83,2.35-5.66,3.54-8.48.74-1.76,1.44-3.53,2.27-5.25.68-1.41,2.36-2.18,3.91-1.95,1.59.24,2.63,1.17,3.24,2.63,1.82,4.36,3.64,8.71,5.47,13.06.09.21.32.48.51.51,4.45.64,8.89,1.29,13.35,1.83,2.19.27,3.75,1.15,4.29,3.41,0,.01.03.02.04.04Z"/>
  </g>
</svg>