<?xml version="1.0" encoding="UTF-8"?>
<svg id="Capa_2" data-name="Capa 2" xmlns="http://www.w3.org/2000/svg" viewBox="0 0 54.8 54.81">
  <defs>
    <style>
      .cls-1 {
        fill: #000;
        stroke-width: 0px;
      }
    </style>
  </defs>
  <g id="Capa_1-2" data-name="Capa 1">
    <g>
      <path class="cls-1" d="M29.71,0c1.42.28,2.87.44,4.24.88,1.66.54,3.34,1.18,4.85,2.05,3.02,1.74,4.93,4.3,5.04,7.94,5.4.4,8.05,3.94,9.58,8.52,2.11,6.33,1.89,12.62-1.15,18.64-1.7,3.36-4.32,5.65-8.25,5.79-.31,1.17-.49,2.35-.94,3.41-.98,2.33-2.8,3.98-5.03,5.04-7.15,3.39-14.37,3.42-21.48-.1-2.69-1.33-4.7-3.4-5.41-6.47-.13-.57-.16-1.16-.24-1.81-.71-.12-1.47-.18-2.19-.37-2.35-.64-4.07-2.14-5.42-4.11-1.79-2.63-2.66-5.6-3.09-8.71-.05-.33-.14-.66-.21-.99,0-1.52,0-3.05,0-4.57.07-.3.12-.6.2-.9.56-2.13.93-4.33,1.73-6.36,1.17-2.97,3.11-5.39,6.28-6.49.86-.3,1.8-.38,2.74-.57-.01-2.99,1.38-5.33,3.74-7.01,1.47-1.05,3.13-1.9,4.83-2.51C21.32.66,23.26.42,25.14,0,26.66,0,28.19,0,29.71,0ZM27.43,18.05c-5.16-.03-9.34,4.08-9.38,9.22-.04,5.19,4.1,9.42,9.27,9.46,5.12.05,9.41-4.22,9.41-9.36,0-5.12-4.17-9.3-9.3-9.33Z"/>
      <path class="cls-1" d="M24.28,27.35c.01-1.72,1.39-3.08,3.12-3.07,1.71.01,3.12,1.43,3.1,3.12-.02,1.67-1.49,3.12-3.15,3.1-1.7-.02-3.08-1.44-3.07-3.15Z"/>
    </g>
  </g>
</svg>