<?xml version="1.0" encoding="UTF-8"?>
<svg id="Capa_2" data-name="Capa 2" xmlns="http://www.w3.org/2000/svg" viewBox="0 0 54.8 54.79">
  <defs>
    <style>
      .cls-1 {
        fill: #000;
        stroke-width: 0px;
      }
    </style>
  </defs>
  <g id="Capa_1-2" data-name="Capa 1">
    <g>
      <path class="cls-1" d="M19,19c-.49-2.72-.54-5.33.05-7.93.97-4.24,3.18-7.7,6.59-10.39,1.18-.93,2.4-.92,3.6.07,5.37,4.43,7.58,10.13,6.73,17.02-.04.36-.09.71-.14,1.06,0,.02.03.05-.02-.03,1.88-.04,3.7-.24,5.5-.1,5.29.42,9.56,2.83,12.84,6.98.89,1.13.85,2.37-.1,3.53-4.43,5.37-10.12,7.59-17.01,6.75-.36-.04-.71-.1-1.06-.14-.02,0-.05.02-.01,0,.06,1.72.25,3.41.15,5.09-.33,5.4-2.71,9.77-6.92,13.15-1.19.95-2.41.96-3.6-.02-5.41-4.44-7.63-10.16-6.76-17.09.04-.35.1-.7.13-.99-1.82.04-3.64.24-5.43.1-5.32-.41-9.62-2.84-12.91-7.02-.86-1.09-.82-2.33.1-3.46,3.8-4.69,8.72-7.03,14.76-6.98.57,0,1.14.03,1.7.09.56.06,1.12.17,1.82.27ZM27.46,35.46c4.44-.02,8.04-3.62,8.06-8.04.02-4.44-3.65-8.1-8.11-8.08-4.49.02-8.06,3.64-8.03,8.13.03,4.45,3.64,8.02,8.08,7.99Z"/>
      <path class="cls-1" d="M13.18,13.18c-1.92.39-3.84.78-5.93,1.2-.03-.94-.12-1.91-.09-2.87.1-3.63.73-4.25,4.34-4.37.95-.03,1.9,0,2.91,0-.43,2.13-.83,4.08-1.23,6.04Z"/>
      <path class="cls-1" d="M7.09,40.37c2.24.45,4.16.84,6.09,1.23.38,1.89.78,3.83,1.2,5.91-1.84.16-3.73.42-5.51-.27-.62-.24-1.33-1.03-1.44-1.66-.28-1.68-.25-3.42-.34-5.21Z"/>
      <path class="cls-1" d="M40.38,7.1c1.78.09,3.51.09,5.2.31,1.06.14,1.79.97,1.87,2.04.11,1.63.03,3.26.03,4.93-1.95-.4-3.9-.79-5.87-1.19-.38-1.87-.77-3.81-1.23-6.08Z"/>
      <path class="cls-1" d="M41.61,41.61c1.91-.39,3.86-.78,5.89-1.2.19,1.81.38,3.64-.2,5.38-.21.63-.94,1.33-1.59,1.54-1.72.55-3.52.34-5.31.19.42-2.05.82-4,1.21-5.92Z"/>
      <path class="cls-1" d="M24.76,27.41c0-1.49,1.18-2.68,2.66-2.69,1.48,0,2.7,1.2,2.71,2.66,0,1.46-1.22,2.68-2.69,2.69-1.48,0-2.68-1.18-2.69-2.67Z"/>
    </g>
  </g>
</svg>