<?xml version="1.0" encoding="UTF-8"?>
<svg id="Capa_2" data-name="Capa 2" xmlns="http://www.w3.org/2000/svg" viewBox="0 0 54.82 54.81">
  <defs>
    <style>
      .cls-1 {
        fill: #000;
        stroke-width: 0px;
      }
    </style>
  </defs>
  <g id="Capa_1-2" data-name="Capa 1">
    <g>
      <path class="cls-1" d="M54.82,25.8v3.21c-.03.17-.08.34-.09.51-.16,2.47-.68,4.87-1.52,7.19-4.79,13.2-18.71,20.64-32.36,17.3C6.76,50.58-2.26,36.49.5,22.26c1.06-5.45,3.53-10.17,7.44-14.11C12.03,4.02,16.95,1.41,22.69.42,23.73.24,24.77.14,25.81,0c1.07,0,2.14,0,3.21,0,.72.09,1.45.16,2.17.26,5.4.76,10.18,2.92,14.27,6.53,4.82,4.25,7.83,9.55,8.94,15.89.18,1.03.28,2.07.42,3.11ZM51.56,27.39c-.02-13.32-10.87-24.15-24.15-24.13-13.32.02-24.15,10.87-24.13,24.15.02,13.32,10.87,24.15,24.15,24.13,13.32-.02,24.15-10.87,24.13-24.15Z"/>
      <path class="cls-1" d="M27.44,28.59c4.67,0,9.35,0,14.02,0,1.49,0,2.07.6,2.02,2.09-.23,6.88-4.65,12.76-11.22,14.89-6.35,2.06-13.63-.26-17.64-5.62-2.1-2.8-3.2-5.93-3.28-9.43-.03-1.27.59-1.93,1.86-1.93,4.74,0,9.49,0,14.23,0ZM40.09,31.9H14.74c.59,5.75,5.78,11.15,12.67,11.15,6.89,0,12.08-5.4,12.67-11.15Z"/>
      <path class="cls-1" d="M16.57,18.17c1.86,0,3.43.62,4.76,1.85.76.7.84,1.67.21,2.38-.6.68-1.59.75-2.34.07-1.42-1.28-3.15-1.28-4.39-.53-.29.17-.54.4-.81.61-.72.56-1.68.49-2.26-.16-.58-.65-.55-1.63.11-2.27,1.33-1.28,2.92-1.94,4.72-1.96Z"/>
      <path class="cls-1" d="M43.62,21.23c-.12.74-.42,1.25-1.01,1.54-.61.3-1.23.25-1.75-.2-.65-.55-1.34-1-2.21-1.1-.99-.12-1.87.13-2.65.74-.16.12-.3.25-.46.37-.73.55-1.69.47-2.26-.2-.58-.67-.52-1.61.15-2.26,1.1-1.07,2.41-1.72,3.93-1.89,2.14-.24,4.03.36,5.58,1.87.31.3.47.76.7,1.14Z"/>
    </g>
  </g>
</svg>