<?xml version="1.0" encoding="UTF-8"?>
<svg id="Capa_2" data-name="Capa 2" xmlns="http://www.w3.org/2000/svg" viewBox="0 0 54.81 38.25">
  <defs>
    <style>
      .cls-1 {
        fill: #000;
        stroke-width: 0px;
      }
    </style>
  </defs>
  <g id="Capa_1-2" data-name="Capa 1">
    <g>
      <path class="cls-1" d="M2.14,20.39c.6.27,1.14.66,1.69,1.02,2.35,1.53,4.9,1.8,7.59,1.25,1.5-.31,2.72-1.17,3.99-1.96,1.87-1.15,3.77-1.13,5.65,0,.37.22.72.45,1.08.69,2.36,1.55,4.93,1.83,7.64,1.26,1.5-.31,2.72-1.18,3.99-1.96,1.77-1.09,3.58-1.1,5.41-.13.41.22.78.5,1.18.75,3.6,2.21,7.22,2.23,10.78-.02,1.15-.73,2.3-1.3,3.66-1.44v-4.55s0,0,0,0c-.75.02-1.51.13-2.25.26-1.5.28-2.72,1.17-3.99,1.95-1.85,1.13-3.73,1.13-5.6.03-.38-.23-.75-.48-1.13-.72-2.36-1.55-4.93-1.82-7.64-1.26-1.48.31-2.69,1.16-3.94,1.93-1.89,1.17-3.8,1.14-5.7,0-.36-.22-.72-.46-1.08-.69-2.35-1.53-4.9-1.8-7.59-1.25-1.5.31-2.72,1.17-3.99,1.96-1.87,1.15-3.77,1.13-5.65,0-.35-.21-.69-.43-1.03-.66-1.37-.92-2.87-1.41-4.51-1.53-.26-.02-.49-.02-.7-.02v4.61c.14.02.28.03.43.03.58.02,1.18.22,1.72.46Z"/>
      <path class="cls-1" d="M1.25,4.77c.89.42,1.78.85,2.6,1.38,2.33,1.48,4.84,1.75,7.49,1.24,1.53-.29,2.78-1.14,4.05-1.96,1.45-.95,3.02-1.09,4.61-.53.79.28,1.5.79,2.21,1.26,2.07,1.35,4.35,1.65,6.75,1.37,1.73-.21,3.18-1.05,4.6-1.98,2-1.32,4.02-1.28,6.05,0,.9.56,1.81,1.19,2.8,1.52,2.98,1,5.89.82,8.58-.95,1.19-.78,2.37-1.45,3.82-1.56V.02c-.67.01-1.34.09-2.01.2-1.55.25-2.83,1.11-4.13,1.93-1.94,1.23-3.9,1.23-5.85.01-.35-.22-.69-.43-1.03-.66C39.55.02,37.08-.26,34.49.2c-1.57.28-2.86,1.13-4.18,1.96-1.92,1.22-3.87,1.2-5.8.01-.36-.22-.72-.45-1.08-.69C21.18.01,18.71-.26,16.12.21c-1.55.28-2.83,1.12-4.12,1.94-1.94,1.23-3.9,1.22-5.85,0-.36-.23-.72-.45-1.08-.69C3.79.63,2.39.16.87.04.59.02.29.01,0,.02v4.58c.09,0,.18.01.28.01.33,0,.68.01.97.15Z"/>
      <path class="cls-1" d="M52.69,30.81c-1.55.26-2.82,1.13-4.11,1.97-1.45.95-3.02,1.08-4.61.52-.77-.27-1.47-.78-2.16-1.23-2.32-1.51-4.83-1.76-7.48-1.26-1.53.29-2.79,1.13-4.05,1.96-1.47.97-3.06,1.11-4.67.53-.77-.28-1.46-.78-2.16-1.24-2.3-1.49-4.8-1.74-7.43-1.26-1.55.28-2.83,1.13-4.11,1.98-1.35.89-2.84,1.09-4.34.6-.92-.3-1.75-.89-2.59-1.4-1.35-.83-2.8-1.31-4.38-1.38-.22,0-.42-.01-.61,0v4.58c.11.01.23.02.35.02.63.02,1.29.26,1.88.51.58.25,1.1.64,1.64.99,2.25,1.47,4.71,1.75,7.31,1.29,1.57-.28,2.86-1.14,4.17-1.97,1.92-1.21,3.87-1.19,5.8,0,.36.22.72.46,1.08.69,2.24,1.46,4.68,1.73,7.25,1.28,1.59-.28,2.9-1.15,4.23-1.99,1.9-1.2,3.84-1.17,5.75,0,.35.21.68.45,1.03.66,3.52,2.1,7.05,2.13,10.54-.03,1.19-.74,2.36-1.46,3.78-1.51v-4.52c-.71,0-1.42.08-2.12.2Z"/>
    </g>
  </g>
</svg>