<?xml version="1.0" encoding="UTF-8"?>
<svg id="Capa_2" data-name="Capa 2" xmlns="http://www.w3.org/2000/svg" viewBox="0 0 46.98 54.81">
  <defs>
    <style>
      .cls-1 {
        fill: #000;
        stroke-width: 0px;
      }
    </style>
  </defs>
  <g id="Capa_1-2" data-name="Capa 1">
    <path class="cls-1" d="M46.98,26.49c-.06,2.66-1.21,4.73-3.47,6.16-6.91,4.37-13.81,8.73-20.72,13.09-4.24,2.68-8.47,5.37-12.72,8.02-3.72,2.32-8.45.63-9.75-3.48-.19-.59-.31-1.24-.31-1.86C0,34.46-.01,20.49.02,6.52.02,2.8,3.12-.11,6.83,0c1.19.03,2.26.46,3.28,1.05,7.1,4.11,14.21,8.22,21.32,12.32,3.97,2.29,7.94,4.58,11.9,6.88,2.03,1.18,3.23,2.93,3.59,5.26.02.12.04.24.05.36,0,.2,0,.41,0,.61Z"/>
  </g>
</svg>