<?xml version="1.0" encoding="UTF-8"?>
<svg id="Capa_2" data-name="Capa 2" xmlns="http://www.w3.org/2000/svg" viewBox="0 0 35.92 23.51">
  <defs>
    <style>
      .cls-1 {
        fill: #9ba9bd;
        stroke-width: 0px;
      }
    </style>
  </defs>
  <g id="Capa_1-2" data-name="Capa 1">
    <g>
      <g>
        <path class="cls-1" d="M.41,23.51c-.1,0-.2-.04-.28-.12-.08-.08-.13-.17-.13-.29,0-.05.01-.11.04-.17l4.67-12.5c.04-.13.11-.24.22-.34.11-.1.26-.15.46-.15h2.11c.19,0,.34.05.45.15.1.1.18.21.23.34l4.67,12.5c.01.06.02.12.02.17,0,.12-.04.21-.12.29-.08.08-.17.12-.27.12h-1.69c-.18,0-.31-.04-.4-.13-.08-.08-.14-.16-.16-.24l-.91-2.36H3.57l-.91,2.36c-.03.08-.08.16-.16.24s-.22.13-.4.13H.41ZM4.24,18.54h4.4l-2.21-5.99-2.19,5.99Z"/>
        <path class="cls-1" d="M14.33,23.51c-.18,0-.34-.07-.49-.2-.15-.13-.22-.3-.22-.5,0-.09.02-.19.07-.3L21.79.84c.07-.22.2-.42.39-.59.19-.17.45-.25.79-.25h3.66c.34,0,.59.08.77.25.18.17.31.36.4.59l8.09,21.66c.02.11.03.21.03.3,0,.2-.07.37-.2.5-.13.13-.29.2-.47.2h-2.92c-.31,0-.54-.07-.69-.22-.15-.15-.24-.29-.29-.42l-1.58-4.1h-9.97l-1.58,4.1c-.05.13-.14.27-.29.42-.15.15-.38.22-.69.22h-2.92ZM20.98,14.91h7.62l-3.83-10.38-3.79,10.38Z"/>
      </g>
      <path class="cls-1" d="M6.49,8.21c-.89,0-1.78,0-2.68,0-.42,0-.75-.26-.85-.66-.06-.23,0-.44.11-.65.42-.72.83-1.44,1.25-2.16.41-.71.83-1.43,1.24-2.14.14-.25.35-.41.64-.45.41-.07.73.08.96.43.43.67.85,1.34,1.27,2.01.49.77.97,1.54,1.46,2.31.29.46.13,1.04-.36,1.24-.11.05-.24.07-.37.07-.89,0-1.78,0-2.68,0Z"/>
    </g>
  </g>
</svg>